<?xml version="1.0" encoding="UTF-8"?> <svg xmlns="http://www.w3.org/2000/svg" width="1167" height="600" viewBox="0 0 1167 600" fill="none"> <rect x="3" width="1160" height="600" fill="#242424"></rect> <path opacity="0.2" d="M201 452.5C111.019 451.325 26.1568 504.247 3 527.261V600H1163V418.459C1055.65 416.689 1021.7 376.775 939.411 376.775C857.122 376.775 784.903 436.14 743 466.5C715.076 495.583 662.643 500.49 645 500C562.959 501.175 500.535 437.985 479.584 407.625C461.059 373.543 432.704 370 422.464 370C405.284 369.978 386.957 376.482 360.492 410.563C334.027 444.645 292.124 454.145 274.481 454.634C249.803 455.319 219.746 452.5 201 452.5Z" fill="url(#paint0_linear)"></path> <path d="M1.1836 439.829C71.8947 426.622 107.367 436.039 137.297 448.71C167.304 461.414 192.097 477.597 241.019 477.597V475.597C192.611 475.597 168.296 459.662 138.077 446.868C107.781 434.043 71.9091 424.585 0.816396 437.863L1.1836 439.829ZM241.019 477.597C265.417 477.597 282.05 475.173 295.035 471.417C308.022 467.66 317.315 462.581 326.989 457.358C336.658 452.138 346.732 446.758 361.383 442.284C376.04 437.809 395.313 434.23 423.347 432.672L423.236 430.675C395.084 432.24 375.646 435.838 360.799 440.372C345.947 444.907 335.726 450.368 326.039 455.598C316.358 460.825 307.236 465.805 294.48 469.496C281.722 473.186 265.285 475.597 241.019 475.597V477.597ZM423.347 432.672C479.288 429.562 524.895 446.81 568.015 464.916C611.078 482.999 651.77 502 697.585 502V500C652.264 500 611.995 481.215 568.789 463.072C525.638 444.953 479.667 427.538 423.236 430.675L423.347 432.672ZM697.585 502C743.452 502 780.546 482.117 810.08 462.331C817.465 457.383 824.384 452.437 830.846 447.809C837.314 443.177 843.318 438.868 848.896 435.178C854.476 431.486 859.598 428.433 864.296 426.305C868.999 424.175 873.217 423 877 423V421C872.82 421 868.306 422.294 863.471 424.484C858.63 426.676 853.406 429.795 847.792 433.51C842.177 437.225 836.141 441.558 829.682 446.183C823.217 450.813 816.322 455.742 808.967 460.669C779.542 480.383 742.855 500 697.585 500V502ZM877 423C884.713 423 892.986 426.093 901.954 430.852C910.921 435.611 920.431 441.95 930.665 448.348C951.057 461.097 974.186 474 1000.5 474V472C974.814 472 952.12 459.403 931.725 446.652C921.566 440.3 911.942 433.889 902.891 429.085C893.842 424.282 885.213 421 877 421V423ZM1000.5 474C1013.73 474 1025.77 469.619 1037.58 463.103C1049.36 456.599 1061.01 447.909 1073.4 439.26C1098.23 421.927 1126.27 404.582 1165.51 404L1165.49 402C1125.61 402.591 1097.15 420.245 1072.26 437.62C1059.79 446.324 1048.27 454.914 1036.61 461.352C1024.97 467.777 1013.27 472 1000.5 472V474Z" fill="#323232"></path> <path d="M200.559 452.418L200.546 453.418L200.559 453.418L200.559 452.418ZM273.651 456.913L273.68 457.913L273.651 456.913ZM426 368L425.999 369L426 369L426 368ZM479.638 408.96L478.756 409.431C478.773 409.462 478.791 409.492 478.811 409.522L479.638 408.96ZM645.757 500.371L645.785 499.371C645.77 499.371 645.756 499.371 645.742 499.371L645.757 500.371ZM742.105 467.403L741.512 466.597C741.502 466.605 741.492 466.613 741.481 466.621L742.105 467.403ZM1.71044 531.704C13.2354 520.069 40.4272 500.185 76.0399 483.36C111.642 466.539 155.564 452.821 200.546 453.418L200.573 451.418C155.187 450.816 110.957 464.651 75.1855 481.551C39.4249 498.447 12.0212 518.453 0.289561 530.296L1.71044 531.704ZM200.559 453.418C209.912 453.418 221.924 454.709 234.777 455.923C247.597 457.134 261.219 458.264 273.68 457.913L273.623 455.914C261.3 456.261 247.789 455.143 234.965 453.932C222.176 452.724 210.033 451.418 200.559 451.418L200.559 453.418ZM273.68 457.913C291.588 457.408 334.006 447.647 360.827 412.564L359.238 411.349C332.902 445.799 291.153 455.419 273.623 455.914L273.68 457.913ZM360.827 412.564C387.3 377.937 409.171 368.978 425.999 369L426.001 367C408.32 366.977 385.924 376.443 359.238 411.349L360.827 412.564ZM426 369C435.912 369 460.324 374.987 478.756 409.431L480.52 408.488C461.742 373.398 436.656 367 426 367L426 369ZM478.811 409.522C489.402 425.109 510.423 448.354 539.134 467.56C567.85 486.769 604.316 501.974 645.771 501.371L645.742 499.371C604.803 499.967 568.73 484.951 540.246 465.897C511.756 446.84 490.916 423.78 480.465 408.398L478.811 409.522ZM645.728 501.37C663.604 501.874 707.937 495.948 742.729 468.184L741.481 466.621C707.168 494.004 663.348 499.866 645.785 499.371L645.728 501.37ZM742.698 468.208C763.761 452.707 792.873 430.278 827.043 411.711C861.213 393.145 900.358 378.49 941.447 378.49V376.49C899.893 376.49 860.408 391.306 826.088 409.954C791.77 428.601 762.532 451.128 741.512 466.597L742.698 468.208ZM941.447 378.49C982.589 378.49 1011.63 388.615 1043.98 399.025C1076.34 409.441 1111.93 420.106 1165.98 421.011L1166.02 419.011C1112.26 418.111 1076.89 407.515 1044.59 397.121C1012.28 386.722 982.949 376.49 941.447 376.49V378.49Z" fill="#2E2E2E"></path> <defs> <linearGradient id="paint0_linear" x1="19.7568" y1="489.589" x2="1125.37" y2="492.071" gradientUnits="userSpaceOnUse"> <stop stop-color="#131313"></stop> <stop offset="1" stop-color="#242424"></stop> </linearGradient> </defs> </svg> 