<?xml version="1.0" encoding="UTF-8"?> <svg xmlns="http://www.w3.org/2000/svg" width="159" height="40" viewBox="0 0 159 40" fill="none"> <g clip-path="url(#clip0)"> <path fill-rule="evenodd" clip-rule="evenodd" d="M63.0139 33.3103C68.6922 33.3103 72.4664 30.4664 72.4664 25.6818C72.4664 21.2319 69.1264 19.4921 63.7488 18.3211C60.5091 17.5855 59.7075 17.1165 59.7075 16.0452C59.7075 15.1418 60.4756 14.4726 62.0455 14.4726C64.1162 14.4726 66.4542 15.2758 68.5919 16.7813L71.8318 12.1977C69.2932 10.1565 66.1864 9.08594 62.2123 9.08594C56.6011 9.08594 53.1608 12.231 53.1608 16.5802C53.1608 21.465 57.0018 22.8703 61.9785 24.0078C65.1516 24.7434 65.92 25.2793 65.92 26.2496C65.92 27.3202 64.9846 27.9225 63.2478 27.9225C60.5423 27.9225 57.9695 26.9521 55.6659 25.1119L52.0586 29.428C54.9311 32.0059 58.8724 33.3103 63.0139 33.3103ZM80.191 32.9089H86.6708V15.1765H92.9964V9.4887H73.8653V15.1765H80.191V32.9094V32.9089ZM95.8355 32.9089H114.348V27.3887H102.248V23.6749H112.093V18.5558H102.248V15.0092H114.182V9.4887H95.8348V32.9094L95.8355 32.9089ZM117.884 32.9089H124.364V26.2177H127.57C133.382 26.2177 137.624 23.3069 137.624 17.7862C137.624 12.5333 133.816 9.4887 127.904 9.4887H117.884V32.9094V32.9089ZM124.364 21.1317V14.9425H127.403C129.742 14.9425 131.144 16.0131 131.144 18.0206C131.144 19.9287 129.741 21.1324 127.437 21.1324H124.364L124.364 21.1317ZM149.548 33.3103C155.226 33.3103 159 30.4664 159 25.6818C159 21.2319 155.66 19.4921 150.283 18.3211C147.043 17.5855 146.241 17.1165 146.241 16.0452C146.241 15.1418 147.01 14.4726 148.579 14.4726C150.65 14.4726 152.988 15.2758 155.126 16.7813L158.366 12.1977C155.827 10.1565 152.72 9.08594 148.746 9.08594C143.135 9.08594 139.695 12.231 139.695 16.5802C139.695 21.465 143.536 22.8703 148.513 24.0078C151.686 24.7434 152.454 25.2793 152.454 26.2496C152.454 27.3202 151.519 27.9225 149.782 27.9225C147.076 27.9225 144.504 26.9521 142.2 25.1119L138.593 29.428C141.465 32.0059 145.406 33.3103 149.548 33.3103Z" fill="white"></path> <path d="M39.7016 7.12646H4.36035V32.8736H39.7016V7.12646Z" fill="#FFC711"></path> <path d="M44.521 0H10.7861V20.4598H44.521V0Z" fill="#CA0000"></path> <path d="M39.7017 7.12646H10.7861V20.4598H39.7017V7.12646Z" fill="#FF0000"></path> <path d="M35.3413 17.2413H0V40H35.3413V17.2413Z" fill="#6627E3"></path> <path d="M35.3414 17.2413H4.36035V32.8735H35.3414V17.2413Z" fill="#CA0000"></path> <path fill-rule="evenodd" clip-rule="evenodd" d="M35.4561 28.0485L34.29 25.1H28.1673L27.0595 28.0485H18.6637L18.5588 13.5223L12.8161 28.046H8.73415L2.29492 11.9506H7.19382L10.8216 22.1076L14.3729 11.9506H22.9489L23.0637 26.5586L29.1639 11.9522H33.4044L40.1624 28.0485H35.4561ZM31.2518 17.166L29.4602 21.6781H33.0205L31.2518 17.166Z" fill="white"></path> </g> <defs> <clipPath id="clip0"> <rect width="159" height="40" fill="white"></rect> </clipPath> </defs> </svg> 