<?xml version="1.0" encoding="UTF-8"?> <svg xmlns="http://www.w3.org/2000/svg" width="507" height="67" viewBox="0 0 507 67" fill="none"> <path d="M25.9 69L0 2.29999H25.3L34.6 33.7C35.2667 35.9667 35.7667 38.9333 36.1 42.6H36.7C36.8333 39.5333 37.3 36.5667 38.1 33.7L47.2 2.29999H72.5L46.7 69H25.9ZM107.361 69H83.1609V2.29999H107.361V69ZM163.859 60.7H145.459L143.659 69H118.059L141.159 2.29999H167.959L191.759 69H166.059L163.859 60.7ZM156.559 32.1C156.025 29.8333 155.592 27.3333 155.259 24.6H154.359C154.292 27 153.925 29.5 153.259 32.1L149.959 44.9H159.659L156.559 32.1ZM251.689 6.6L245.189 23.6C240.389 20.2667 235.856 18.6 231.589 18.6C229.589 18.6 228.056 19 226.989 19.8C226.189 20.4 225.789 21.2 225.789 22.2C225.789 22.8 225.856 23.2667 225.989 23.6C226.122 23.9333 226.489 24.3 227.089 24.7C227.689 25.1 228.556 25.4333 229.689 25.7L237.389 27.4C242.256 28.4667 246.056 30.3667 248.789 33.1C252.189 36.4333 253.889 40.8333 253.889 46.3C253.889 52.5667 251.889 57.8 247.889 62C242.356 67.6667 234.522 70.5 224.389 70.5C221.256 70.5 218.122 70.1667 214.989 69.5C211.856 68.9 209.556 68.3333 208.089 67.8C206.622 67.2667 204.489 66.4333 201.689 65.3L199.489 64.4L206.789 45.6L209.389 47.6C213.656 50.8667 218.156 52.5 222.889 52.5C225.356 52.5 227.089 52.1 228.089 51.3C228.956 50.5667 229.389 49.5667 229.389 48.3C229.389 47.3 229.122 46.5333 228.589 46C228.056 45.4667 226.522 44.9333 223.989 44.4L218.089 43.3C213.156 42.3667 209.289 40.4667 206.489 37.6C203.289 34.3333 201.689 30.2333 201.689 25.3C201.689 19.0333 203.856 13.7333 208.189 9.4C213.789 3.66666 221.522 0.799996 231.389 0.799996C238.522 0.799996 245.289 2.73333 251.689 6.6ZM299.705 69H275.905V23.4L262.305 24V2.29999H313.105V24L299.705 23.4V69ZM370.152 69H324.552V2.29999H369.552V20.6H348.752V26.8H367.652V44.3H348.752V50.7H370.152V69ZM408.109 69H384.509V2.29999H416.509C424.642 2.29999 431.142 4.63333 436.009 9.3C440.542 13.7667 442.809 19.6 442.809 26.8C442.809 33.9333 440.609 39.5 436.209 43.5C432.209 47.1 426.742 48.9 419.809 48.9H408.109V69ZM408.109 20.6V32.1H412.209C414.609 32.1 416.409 31.5 417.609 30.3C418.675 29.3667 419.209 28 419.209 26.2C419.209 24.4 418.609 23.0333 417.409 22.1C416.209 21.1 414.575 20.6 412.509 20.6H408.109ZM504.408 6.6L497.908 23.6C493.108 20.2667 488.574 18.6 484.308 18.6C482.308 18.6 480.774 19 479.708 19.8C478.908 20.4 478.508 21.2 478.508 22.2C478.508 22.8 478.574 23.2667 478.708 23.6C478.841 23.9333 479.208 24.3 479.808 24.7C480.408 25.1 481.274 25.4333 482.408 25.7L490.108 27.4C494.974 28.4667 498.774 30.3667 501.508 33.1C504.908 36.4333 506.608 40.8333 506.608 46.3C506.608 52.5667 504.608 57.8 500.608 62C495.074 67.6667 487.241 70.5 477.108 70.5C473.974 70.5 470.841 70.1667 467.708 69.5C464.574 68.9 462.274 68.3333 460.808 67.8C459.341 67.2667 457.208 66.4333 454.408 65.3L452.208 64.4L459.508 45.6L462.108 47.6C466.374 50.8667 470.874 52.5 475.608 52.5C478.074 52.5 479.808 52.1 480.808 51.3C481.674 50.5667 482.108 49.5667 482.108 48.3C482.108 47.3 481.841 46.5333 481.308 46C480.774 45.4667 479.241 44.9333 476.708 44.4L470.808 43.3C465.874 42.3667 462.008 40.4667 459.208 37.6C456.008 34.3333 454.408 30.2333 454.408 25.3C454.408 19.0333 456.574 13.7333 460.908 9.4C466.508 3.66666 474.241 0.799996 484.108 0.799996C491.241 0.799996 498.008 2.73333 504.408 6.6Z" fill="#1D1D1D"></path> </svg> 