<?xml version="1.0" encoding="UTF-8"?> <svg xmlns="http://www.w3.org/2000/svg" width="50" height="50" viewBox="0 0 50 50" fill="none"> <rect width="50" height="50" fill="#6627E3"></rect> <path d="M31.8887 37H16.8037L25.3087 27.165C26.7554 25.4617 27.6654 24.33 28.0387 23.77C28.902 22.5333 29.3337 21.3433 29.3337 20.2C29.3337 18.87 28.902 17.785 28.0387 16.945C27.1754 16.0817 26.0554 15.65 24.6787 15.65C22.9987 15.65 21.7037 16.3383 20.7937 17.715C20.3037 18.4617 20.047 19.3833 20.0237 20.48H17.4337C17.527 18.4967 18.1104 16.8867 19.1837 15.65C20.5837 14.0633 22.427 13.27 24.7137 13.27C26.7904 13.27 28.5054 13.935 29.8587 15.265C31.2354 16.5717 31.9237 18.2283 31.9237 20.235C31.9237 21.7983 31.3054 23.4667 30.0687 25.24C29.4387 26.1033 28.377 27.3983 26.8837 29.125L22.0187 34.62H31.8887V37Z" fill="white"></path> </svg> 