<?xml version="1.0" encoding="UTF-8"?> <svg xmlns="http://www.w3.org/2000/svg" width="104" height="32" viewBox="0 0 104 32" fill="none"> <path d="M100.147 31.5H3.85327C2.0238 31.5 0.5 29.9388 0.5 28V4C0.5 2.05387 2.02317 0.5 3.85327 0.5H100.147C101.975 0.5 103.5 2.05403 103.5 4V28C103.5 29.9386 101.974 31.5 100.147 31.5Z" fill="#1A1A1A" stroke="#4B4B4B"></path> <path d="M54.5462 11.2593C53.9021 11.2593 53.3592 11.0271 52.9298 10.57C52.504 10.1258 52.2662 9.51328 52.2769 8.88801C52.2769 8.22069 52.4969 7.65575 52.9298 7.20782C53.3574 6.75075 53.9003 6.51855 54.5444 6.51855C55.1813 6.51855 55.7243 6.75075 56.1607 7.20782C56.5937 7.67037 56.8137 8.23531 56.8137 8.88801C56.8066 9.55716 56.5866 10.1221 56.1607 10.5682C55.7331 11.0289 55.1902 11.2593 54.5462 11.2593ZM35.3822 11.2593C34.7523 11.2593 34.2059 11.0308 33.7587 10.5792C33.3152 10.1294 33.0898 9.56082 33.0898 8.88984C33.0898 8.21886 33.3152 7.65026 33.7587 7.20051C34.197 6.74892 34.7435 6.52038 35.3822 6.52038C35.6945 6.52038 35.9979 6.58437 36.2889 6.71418C36.5745 6.84033 36.8069 7.01219 36.9791 7.22244L37.0216 7.27546L36.5408 7.76179L36.4911 7.70145C36.2197 7.36871 35.8559 7.20599 35.3751 7.20599C34.9457 7.20599 34.5714 7.36322 34.2626 7.67403C33.9521 7.98667 33.7942 8.3962 33.7942 8.89167C33.7942 9.38713 33.9521 9.79667 34.2626 10.1093C34.5714 10.4201 34.9457 10.5773 35.3751 10.5773C35.8329 10.5773 36.2179 10.4201 36.5177 10.1093C36.6952 9.92648 36.8052 9.67052 36.8442 9.34691H35.3024V8.66313H37.506L37.5149 8.72529C37.5309 8.84048 37.5468 8.95931 37.5468 9.06901C37.5468 9.69977 37.3623 10.2099 36.9968 10.5865C36.5816 11.0326 36.0387 11.2593 35.3822 11.2593ZM60.8626 11.1624H60.183L58.1018 7.73071L58.1195 8.34867V11.1606H57.44V6.61728H58.2154L58.2366 6.65202L60.1937 9.88443L60.1759 9.26829V6.61728H60.8626V11.1624ZM49.4398 11.1624H48.7514V7.30106H47.5573V6.61728H50.6321V7.30106H49.438V11.1624H49.4398ZM46.9966 11.1624H46.31V6.61728H46.9966V11.1624ZM43.1376 11.1624H42.4509V7.30106H41.2568V6.61728H44.3316V7.30106H43.1376V11.1624ZM40.8221 11.1551H38.1891V6.61728H40.8221V7.30106H38.8775V8.54795H40.6323V9.22442H38.8775V10.4713H40.8221V11.1551ZM53.4337 10.1002C53.7406 10.4165 54.1132 10.5755 54.5462 10.5755C54.9915 10.5755 55.3552 10.4201 55.6586 10.1002C55.9603 9.78936 56.1128 9.38165 56.1128 8.88984C56.1128 8.39803 55.9602 7.9885 55.6604 7.67952C55.3534 7.36322 54.9791 7.20416 54.5479 7.20416C54.1026 7.20416 53.7389 7.35957 53.4372 7.67952C53.1356 7.99032 52.983 8.39803 52.983 8.88984C52.983 9.38165 53.1338 9.79118 53.4337 10.1002Z" fill="white"></path> <path fill-rule="evenodd" clip-rule="evenodd" d="M51.7508 17.3445C50.0747 17.3445 48.7162 18.5263 48.7162 20.1564C48.7162 21.7717 50.0836 22.9683 51.7508 22.9683C53.4269 22.9683 54.7855 21.7783 54.7855 20.1564C54.7855 18.5263 53.4269 17.3445 51.7508 17.3445ZM51.7508 21.8541C50.8339 21.8541 50.0446 21.1486 50.0446 20.1498C50.0446 19.1361 50.8356 18.4455 51.7508 18.4455C52.6678 18.4455 53.457 19.1361 53.457 20.1498C53.4588 21.1552 52.6678 21.8541 51.7508 21.8541ZM45.1299 17.3445C43.4538 17.3445 42.0953 18.5263 42.0953 20.1564C42.0953 21.7717 43.4627 22.9683 45.1299 22.9683C46.806 22.9683 48.1646 21.7783 48.1646 20.1564C48.1646 18.5263 46.8042 17.3445 45.1299 17.3445ZM45.1299 21.8541C44.2129 21.8541 43.4237 21.1486 43.4237 20.1498C43.4237 19.1361 44.2147 18.4455 45.1299 18.4455C46.0469 18.4455 46.8361 19.1361 46.8361 20.1498C46.8361 21.1552 46.0469 21.8541 45.1299 21.8541ZM37.2515 18.2032V19.3932H40.3252C40.2312 20.0608 39.9935 20.5536 39.6299 20.8915C39.1794 21.3102 38.4842 21.7651 37.2586 21.7651C35.3697 21.7651 33.8923 20.3476 33.8923 18.5922C33.8923 16.8368 35.3697 15.4193 37.2586 15.4193C38.2784 15.4193 39.0216 15.7934 39.5732 16.2714L40.4813 15.4275C39.7151 14.7452 38.6952 14.2227 37.2657 14.2227C34.6745 14.2227 32.5 16.1841 32.5 18.5856C32.5 20.9937 34.6727 22.9485 37.2657 22.9485C38.6651 22.9485 39.7151 22.5233 40.5451 21.7222C41.3911 20.936 41.6589 19.8267 41.6589 18.9317C41.6589 18.6532 41.6359 18.4026 41.588 18.19H37.2497C37.2515 18.1884 37.2515 18.2032 37.2515 18.2032ZM69.4763 19.1295C69.2227 18.4982 68.4565 17.3379 66.8851 17.3379C65.3278 17.3379 64.0331 18.4768 64.0331 20.1498C64.0331 21.7288 65.3136 22.9617 67.0358 22.9617C68.4192 22.9617 69.2245 22.1755 69.5561 21.714L68.5292 21.0745C68.1887 21.5442 67.7151 21.8524 67.0429 21.8524C66.3636 21.8524 65.8883 21.5657 65.5726 21.0003L69.6182 19.4427C69.6182 19.4443 69.4763 19.1295 69.4763 19.1295ZM65.3509 20.069C65.319 18.9828 66.259 18.4307 66.9312 18.4307C67.4615 18.4307 67.9031 18.673 68.0539 19.0257L65.3509 20.069ZM62.0644 22.7936H63.3928V14.5325H62.0644V22.7936ZM59.8828 17.9691H59.8349C59.5352 17.6378 58.9659 17.3379 58.2387 17.3379C56.7293 17.3379 55.3388 18.5724 55.3388 20.158C55.3388 21.7371 56.7222 22.9568 58.2387 22.9568C58.957 22.9568 59.5352 22.6552 59.8349 22.3173H59.8828V22.7211C59.8828 23.7941 59.2656 24.3726 58.2706 24.3726C57.4565 24.3726 56.951 23.8287 56.7453 23.3738L55.5907 23.8221C55.9223 24.5638 56.8074 25.4819 58.2688 25.4819C59.8261 25.4819 61.1456 24.6298 61.1456 22.5513V17.506H59.8899V17.9691C59.8917 17.9691 59.8828 17.9691 59.8828 17.9691ZM58.3575 21.8541C57.4406 21.8541 56.6744 21.142 56.6744 20.158C56.6744 19.1658 57.4406 18.4471 58.3575 18.4471C59.2656 18.4471 59.9697 19.174 59.9697 20.158C59.9786 21.142 59.2674 21.8541 58.3575 21.8541ZM75.6964 14.5325H72.5198V22.7936H73.8483V19.6652H75.6981C77.1685 19.6652 78.614 18.6746 78.614 17.1022C78.614 15.5297 77.1738 14.5325 75.6964 14.5325ZM75.7354 18.5114H73.8465V15.6764H75.7354C76.7304 15.6764 77.2926 16.4396 77.2926 17.0939C77.2926 17.7417 76.7233 18.5114 75.7354 18.5114ZM83.9384 17.3296C82.9735 17.3296 81.9785 17.7269 81.567 18.5922L82.7447 19.0471C82.9983 18.5922 83.463 18.4373 83.9543 18.4373C84.6425 18.4373 85.3377 18.8197 85.3537 19.502V19.5894C85.116 19.4641 84.5946 19.2729 83.9703 19.2729C82.6986 19.2729 81.4092 19.919 81.4092 21.1305C81.4092 22.2398 82.4521 22.9518 83.6138 22.9518C84.5059 22.9518 84.9972 22.5777 85.304 22.1442H85.3519V22.7837H86.6325V19.6191C86.6325 18.1455 85.4548 17.3296 83.9384 17.3296ZM83.7716 21.8541C83.3371 21.8541 82.7288 21.6563 82.7288 21.1486C82.7288 20.5091 83.4879 20.2668 84.1352 20.2668C84.7205 20.2668 84.9972 20.3838 85.3448 20.5454C85.2491 21.2871 84.5751 21.8475 83.7716 21.8541ZM91.3042 17.506L89.7789 21.0893H89.731L88.1507 17.506H86.7212L89.0925 22.515L87.741 25.299H89.1244L92.7727 17.506H91.3042ZM79.3465 22.7936H80.6749V14.5325H79.3465V22.7936Z" fill="white"></path> <path d="M11.5457 6.92024C11.3171 7.20241 11.2044 7.56071 11.2302 7.92272V23.7619C11.2058 24.1274 11.3269 24.4877 11.5673 24.7644L11.6175 24.8217L20.4817 15.9497V15.7349L11.596 6.87012L11.5457 6.92024Z" fill="url(#paint0_linear)"></path> <path d="M23.4209 18.9078L20.4805 15.9505V15.7356L23.4209 12.7783L23.4854 12.8213L27.0067 14.8119C28.0108 15.3776 28.0108 16.3085 27.0067 16.8813L23.4998 18.872L23.4209 18.9078Z" fill="url(#paint1_linear)"></path> <path d="M23.5054 18.8717L20.4789 15.8428L11.543 24.7648C11.7456 24.945 12.005 25.0486 12.2762 25.0577C12.5473 25.0669 12.8131 24.981 13.0275 24.815L23.5054 18.8717Z" fill="url(#paint2_linear)"></path> <path d="M23.5054 12.8211L13.0275 6.87784C12.8145 6.70951 12.5489 6.62153 12.2774 6.62939C12.0059 6.63725 11.7458 6.74043 11.543 6.9208L20.4789 15.8429L23.5054 12.8211Z" fill="url(#paint3_linear)"></path> <defs> <linearGradient id="paint0_linear" x1="19.6928" y1="7.75803" x2="7.67741" y2="19.7922" gradientUnits="userSpaceOnUse"> <stop stop-color="#00A0FF"></stop> <stop offset="0.01" stop-color="#00A1FF"></stop> <stop offset="0.26" stop-color="#00BEFF"></stop> <stop offset="0.51" stop-color="#00D2FF"></stop> <stop offset="0.76" stop-color="#00DFFF"></stop> <stop offset="1" stop-color="#00E3FF"></stop> </linearGradient> <linearGradient id="paint1_linear" x1="28.3192" y1="15.843" x2="10.9707" y2="15.843" gradientUnits="userSpaceOnUse"> <stop stop-color="#FFE000"></stop> <stop offset="0.41" stop-color="#FFBD00"></stop> <stop offset="0.78" stop-color="#FFA500"></stop> <stop offset="1" stop-color="#FF9C00"></stop> </linearGradient> <linearGradient id="paint2_linear" x1="21.8631" y1="17.4897" x2="5.56563" y2="33.8054" gradientUnits="userSpaceOnUse"> <stop stop-color="#FF3A44"></stop> <stop offset="1" stop-color="#C31162"></stop> </linearGradient> <linearGradient id="paint3_linear" x1="9.29104" y1="1.65062" x2="16.5662" y2="8.93709" gradientUnits="userSpaceOnUse"> <stop stop-color="#32A071"></stop> <stop offset="0.07" stop-color="#2DA771"></stop> <stop offset="0.48" stop-color="#15CF74"></stop> <stop offset="0.8" stop-color="#06E775"></stop> <stop offset="1" stop-color="#00F076"></stop> </linearGradient> </defs> </svg> 