<?xml version="1.0" encoding="UTF-8"?> <svg xmlns="http://www.w3.org/2000/svg" width="50" height="50" viewBox="0 0 50 50" fill="none"> <rect width="50" height="50" fill="#6627E3"></rect> <path d="M20.6537 19.43H18.0637C18.1337 18.1933 18.4954 17.05 19.1487 16C20.3154 14.18 22.1237 13.27 24.5737 13.27C26.6504 13.27 28.2604 13.8883 29.4037 15.125C30.5704 16.3617 31.1537 17.8433 31.1537 19.57C31.1537 22.02 30.1504 23.7467 28.1437 24.75C28.447 24.8667 28.7387 25.03 29.0187 25.24C29.322 25.4267 29.6837 25.73 30.1037 26.15C30.5237 26.57 30.862 27.1533 31.1187 27.9C31.3754 28.6233 31.5037 29.4517 31.5037 30.385C31.5037 32.5083 30.8154 34.2117 29.4387 35.495C28.0854 36.7783 26.382 37.42 24.3287 37.42C22.952 37.42 21.6687 37.105 20.4787 36.475C19.2887 35.8217 18.402 34.795 17.8187 33.395C17.5154 32.6483 17.3404 31.8317 17.2937 30.945H19.8837C20.0004 31.9017 20.2804 32.6833 20.7237 33.29C21.517 34.4567 22.7187 35.04 24.3287 35.04C25.612 35.04 26.697 34.585 27.5837 33.675C28.4704 32.7417 28.9137 31.6217 28.9137 30.315C28.9137 28.4017 28.1437 27.095 26.6037 26.395C25.8337 26.0217 24.947 25.8583 23.9437 25.905V23.595C24.947 23.665 25.8337 23.5017 26.6037 23.105C27.9104 22.4283 28.5637 21.2733 28.5637 19.64C28.5637 18.4967 28.237 17.5517 27.5837 16.805C26.9304 16.035 25.927 15.65 24.5737 15.65C23.267 15.65 22.2637 16.0933 21.5637 16.98C21.027 17.68 20.7237 18.4967 20.6537 19.43Z" fill="white"></path> </svg> 