<?xml version="1.0" encoding="UTF-8"?> <svg xmlns="http://www.w3.org/2000/svg" width="169" height="42" viewBox="0 0 169 42" fill="none"> <path d="M19.064 16.662H21.374C22.3913 16.662 23.152 16.858 23.656 17.25C24.2347 17.698 24.524 18.342 24.524 19.182C24.524 20.0127 24.174 20.624 23.474 21.016C23.95 21.0907 24.356 21.2867 24.692 21.604C25.14 22.0333 25.364 22.6167 25.364 23.354C25.364 24.138 25.098 24.768 24.566 25.244C23.9967 25.748 23.208 26 22.2 26H19.064V16.662ZM20.884 18.146V20.54H21.402C21.4953 20.54 21.5793 20.54 21.654 20.54C21.738 20.5307 21.8547 20.5027 22.004 20.456C22.1627 20.4093 22.2933 20.3487 22.396 20.274C22.508 20.19 22.606 20.0687 22.69 19.91C22.774 19.742 22.816 19.546 22.816 19.322C22.816 18.9207 22.6853 18.6267 22.424 18.44C22.1627 18.244 21.8267 18.146 21.416 18.146H20.884ZM20.884 21.94V24.516H21.668C22.2093 24.516 22.6247 24.432 22.914 24.264C23.2967 24.04 23.488 23.6807 23.488 23.186C23.488 22.682 23.2593 22.3273 22.802 22.122C22.5407 22.0007 22.1253 21.94 21.556 21.94H20.884ZM33.9644 26L33.1384 24.04H29.3724L28.5464 26H26.5724L30.5904 16.662H32.0184L35.9244 26H33.9644ZM29.9464 22.556H32.6064L31.2764 19.196L29.9464 22.556ZM44.0498 23.536V25.664C43.3592 26.028 42.5892 26.21 41.7398 26.21C40.3772 26.21 39.2385 25.776 38.3238 24.908C37.3252 23.9467 36.8258 22.7567 36.8258 21.338C36.8258 19.826 37.3252 18.608 38.3238 17.684C39.2012 16.8627 40.3445 16.452 41.7538 16.452C42.5752 16.452 43.3405 16.6433 44.0498 17.026V19.154C43.4432 18.454 42.6918 18.104 41.7958 18.104C40.8812 18.104 40.1345 18.426 39.5558 19.07C38.9865 19.7047 38.7018 20.47 38.7018 21.366C38.7018 22.346 39.0192 23.1253 39.6538 23.704C40.2885 24.2733 41.0258 24.558 41.8658 24.558C42.7432 24.558 43.4712 24.2173 44.0498 23.536ZM48.1031 16.662V20.61L51.5331 16.662H53.8291L49.8811 20.974L54.0391 26H51.6311L48.3131 21.814L48.1031 22.024V26H46.2831V16.662H48.1031ZM64.611 18.23H62.511V26H60.691V18.23H58.591V16.662H64.611V18.23ZM66.8659 17.824C67.7992 16.9093 68.9986 16.452 70.4639 16.452C71.9292 16.452 73.1239 16.9093 74.0479 17.824C74.9812 18.7387 75.4479 19.91 75.4479 21.338C75.4479 22.766 74.9812 23.9373 74.0479 24.852C73.1239 25.7573 71.9292 26.21 70.4639 26.21C68.9986 26.21 67.7992 25.7573 66.8659 24.852C65.9419 23.9373 65.4799 22.766 65.4799 21.338C65.4799 19.91 65.9419 18.7387 66.8659 17.824ZM68.2239 23.662C68.8026 24.2593 69.5492 24.558 70.4639 24.558C71.3786 24.558 72.1252 24.2593 72.7039 23.662C73.2826 23.0553 73.5719 22.2807 73.5719 21.338C73.5719 20.3953 73.2779 19.6207 72.6899 19.014C72.1112 18.4073 71.3692 18.104 70.4639 18.104C69.5586 18.104 68.8119 18.4073 68.2239 19.014C67.6452 19.6207 67.3559 20.3953 67.3559 21.338C67.3559 22.2807 67.6452 23.0553 68.2239 23.662ZM86.5527 18.23H84.4527V26H82.6327V18.23H80.5327V16.662H86.5527V18.23ZM88.8076 17.824C89.741 16.9093 90.9403 16.452 92.4056 16.452C93.871 16.452 95.0656 16.9093 95.9896 17.824C96.923 18.7387 97.3896 19.91 97.3896 21.338C97.3896 22.766 96.923 23.9373 95.9896 24.852C95.0656 25.7573 93.871 26.21 92.4056 26.21C90.9403 26.21 89.741 25.7573 88.8076 24.852C87.8836 23.9373 87.4216 22.766 87.4216 21.338C87.4216 19.91 87.8836 18.7387 88.8076 17.824ZM90.1656 23.662C90.7443 24.2593 91.491 24.558 92.4056 24.558C93.3203 24.558 94.067 24.2593 94.6456 23.662C95.2243 23.0553 95.5136 22.2807 95.5136 21.338C95.5136 20.3953 95.2196 19.6207 94.6316 19.014C94.053 18.4073 93.311 18.104 92.4056 18.104C91.5003 18.104 90.7536 18.4073 90.1656 19.014C89.587 19.6207 89.2976 20.3953 89.2976 21.338C89.2976 22.2807 89.587 23.0553 90.1656 23.662ZM99.6269 16.662H102.343C102.922 16.662 103.393 16.7133 103.757 16.816C104.13 16.9093 104.48 17.096 104.807 17.376C105.442 17.936 105.759 18.6873 105.759 19.63C105.759 20.5073 105.502 21.2027 104.989 21.716C104.438 22.2667 103.65 22.542 102.623 22.542H101.447V26H99.6269V16.662ZM101.447 18.23V20.974H102.189C102.721 20.974 103.118 20.876 103.379 20.68C103.715 20.4187 103.883 20.0547 103.883 19.588C103.883 19.1307 103.71 18.776 103.365 18.524C103.085 18.328 102.656 18.23 102.077 18.23H101.447Z" fill="#4B4B4B"></path> <rect x="0.5" y="0.5" width="168" height="41" stroke="#4B4B4B"></rect> <g clip-path="url(#clip0)"> <path d="M140.195 10.9649L140.195 29.1957C140.195 29.6399 140.556 30 141 30C141.444 30 141.804 29.64 141.804 29.1957L141.804 10.9649C141.804 10.5207 141.444 10.1606 141 10.1606C140.555 10.1606 140.195 10.5206 140.195 10.9649Z" fill="#4B4B4B"></path> <path d="M140.431 10.2354L132.549 18.1173C132.235 18.4315 132.235 18.9403 132.549 19.2546C132.863 19.5688 133.373 19.5688 133.686 19.2546L141 11.9413L148.314 19.2546C148.627 19.5688 149.137 19.5688 149.451 19.2546C149.608 19.0975 149.686 18.8918 149.686 18.6859C149.686 18.48 149.608 18.2744 149.451 18.1173L141.569 10.2354C141.254 9.9212 140.745 9.9212 140.431 10.2354Z" fill="#4B4B4B"></path> </g> <defs> <clipPath id="clip0"> <rect width="20" height="20" fill="white" transform="translate(131 30) rotate(-90)"></rect> </clipPath> </defs> </svg> 