<?xml version="1.0" encoding="UTF-8"?> <svg xmlns="http://www.w3.org/2000/svg" width="176" height="54" viewBox="0 0 176 54" fill="none"> <path fill-rule="evenodd" clip-rule="evenodd" d="M169.479 54H6.52092C2.92697 54 0 50.9566 0 47.25V6.75C0 3.02993 2.92697 0 6.52092 0H169.479C173.07 0 176 3.02993 176 6.75V47.25C176 50.9566 173.07 54 169.479 54Z" fill="white"></path> <path d="M92.3107 19C91.2207 19 90.3019 18.6082 89.5753 17.8369C88.8547 17.0872 88.4523 16.0536 88.4703 14.9985C88.4703 13.8723 88.8426 12.919 89.5753 12.1631C90.2989 11.3918 91.2177 11 92.3077 11C93.3856 11 94.3044 11.3918 95.0431 12.1631C95.7757 12.9437 96.148 13.897 96.148 14.9985C96.136 16.1277 95.7637 17.081 95.0431 17.8338C94.3194 18.6113 93.4006 19 92.3107 19ZM59.8794 19C58.8135 19 57.8886 18.6143 57.132 17.8523C56.3813 17.0933 56 16.1338 56 15.0015C56 13.8693 56.3813 12.9098 57.132 12.1508C57.8736 11.3887 58.7984 11.0031 59.8794 11.0031C60.4078 11.0031 60.9213 11.1111 61.4137 11.3301C61.8971 11.543 62.2905 11.833 62.5817 12.1878L62.6538 12.2773L61.8401 13.098L61.756 12.9961C61.2966 12.4346 60.6811 12.16 59.8674 12.16C59.1407 12.16 58.5072 12.4254 57.9847 12.9499C57.4593 13.4774 57.192 14.1685 57.192 15.0046C57.192 15.8407 57.4593 16.5318 57.9847 17.0594C58.5072 17.5839 59.1407 17.8492 59.8674 17.8492C60.642 17.8492 61.2936 17.5839 61.8011 17.0594C62.1013 16.7509 62.2875 16.3189 62.3535 15.7729H59.7443V14.619H63.4735L63.4885 14.7239C63.5156 14.9182 63.5426 15.1188 63.5426 15.3039C63.5426 16.3683 63.2303 17.2291 62.6118 17.8646C61.9092 18.6174 60.9904 19 59.8794 19ZM103 18.8365H101.85L98.3279 13.0455L98.3579 14.0883V18.8334H97.2079V11.1666H98.5201L98.5561 11.2252L101.868 16.6799L101.838 15.6402V11.1666H103V18.8365ZM83.6691 18.8365H82.5041V12.3205H80.4834V11.1666H85.6869V12.3205H83.6661V18.8365H83.6691ZM79.5345 18.8365H78.3725V11.1666H79.5345V18.8365ZM73.0038 18.8365H71.8418V12.3205H69.8211V11.1666H75.0246V12.3205H73.0038V18.8365ZM69.0854 18.8241H64.6295V11.1666H69.0854V12.3205H65.7945V14.4246H68.7641V15.5661H65.7945V17.6703H69.0854V18.8241ZM90.428 17.044C90.9475 17.5777 91.578 17.8461 92.3107 17.8461C93.0643 17.8461 93.6799 17.5839 94.1933 17.044C94.7038 16.5195 94.962 15.8315 94.962 15.0015C94.962 14.1716 94.7038 13.4805 94.1963 12.9591C93.6769 12.4254 93.0433 12.157 92.3137 12.157C91.56 12.157 90.9445 12.4192 90.434 12.9591C89.9236 13.4836 89.6654 14.1716 89.6654 15.0015C89.6654 15.8315 89.9206 16.5226 90.428 17.044Z" fill="#1A1A1A"></path> <path fill-rule="evenodd" clip-rule="evenodd" d="M87.5783 29.268C84.7419 29.268 82.4427 31.2623 82.4427 34.0132C82.4427 36.739 84.7569 38.7583 87.5783 38.7583C90.4147 38.7583 92.7139 36.7501 92.7139 34.0132C92.7139 31.2623 90.4147 29.268 87.5783 29.268ZM87.5783 36.8781C86.0265 36.8781 84.6908 35.6876 84.6908 34.002C84.6908 32.2915 86.0295 31.126 87.5783 31.126C89.1301 31.126 90.4657 32.2915 90.4657 34.002C90.4687 35.6987 89.1301 36.8781 87.5783 36.8781ZM76.3737 29.268C73.5373 29.268 71.2381 31.2623 71.2381 34.0132C71.2381 36.739 73.5523 38.7583 76.3737 38.7583C79.2101 38.7583 81.5093 36.7501 81.5093 34.0132C81.5093 31.2623 79.2071 29.268 76.3737 29.268ZM76.3737 36.8781C74.8219 36.8781 73.4862 35.6876 73.4862 34.002C73.4862 32.2915 74.8249 31.126 76.3737 31.126C77.9255 31.126 79.2611 32.2915 79.2611 34.002C79.2611 35.6987 77.9255 36.8781 76.3737 36.8781ZM63.041 30.7172V32.7254H68.2426C68.0835 33.8519 67.6813 34.6835 67.066 35.2537C66.3037 35.9602 65.1271 36.7279 63.053 36.7279C59.8564 36.7279 57.3562 34.3358 57.3562 31.3736C57.3562 28.4114 59.8564 26.0193 63.053 26.0193C64.7789 26.0193 66.0365 26.6507 66.97 27.4573L68.5068 26.0332C67.2101 24.8817 65.4842 24 63.065 24C58.6798 24 55 27.3099 55 31.3625C55 35.4261 58.6768 38.7249 63.065 38.7249C65.4332 38.7249 67.2101 38.0073 68.6148 36.6555C70.0465 35.3288 70.4998 33.4569 70.4998 31.9466C70.4998 31.4765 70.4607 31.0537 70.3797 30.6949H63.038C63.041 30.6921 63.041 30.7172 63.041 30.7172ZM117.575 32.2803C117.146 31.215 115.849 29.2569 113.19 29.2569C110.555 29.2569 108.364 31.1789 108.364 34.002C108.364 36.6667 110.531 38.7472 113.445 38.7472C115.786 38.7472 117.149 37.4204 117.71 36.6416L115.972 35.5624C115.396 36.3551 114.595 36.8753 113.457 36.8753C112.308 36.8753 111.503 36.3913 110.969 35.4373L117.815 32.8088C117.815 32.8116 117.575 32.2803 117.575 32.2803ZM110.594 33.8658C110.54 32.0328 112.131 31.101 113.268 31.101C114.166 31.101 114.913 31.5099 115.168 32.1051L110.594 33.8658ZM105.032 38.4635H107.28V24.5229H105.032V38.4635ZM101.34 30.3222H101.259C100.752 29.7631 99.7884 29.2569 98.5578 29.2569C96.0035 29.2569 93.6503 31.3402 93.6503 34.016C93.6503 36.6806 95.9915 38.7388 98.5578 38.7388C99.7734 38.7388 100.752 38.2298 101.259 37.6596H101.34V38.3411C101.34 40.1518 100.296 41.1281 98.6118 41.1281C97.2341 41.1281 96.3787 40.2102 96.0305 39.4425L94.0765 40.1991C94.6378 41.4507 96.1356 43 98.6088 43C101.244 43 103.477 41.562 103.477 38.0546V29.5406H101.352V30.3222C101.355 30.3222 101.34 30.3222 101.34 30.3222ZM98.7589 36.8781C97.2071 36.8781 95.9105 35.6765 95.9105 34.016C95.9105 32.3415 97.2071 31.1288 98.7589 31.1288C100.296 31.1288 101.487 32.3554 101.487 34.016C101.502 35.6765 100.299 36.8781 98.7589 36.8781ZM128.102 24.5229H122.726V38.4635H124.974V33.1843H128.105C130.593 33.1843 133.039 31.5127 133.039 28.8592C133.039 26.2057 130.602 24.5229 128.102 24.5229ZM128.168 31.2373H124.971V26.4532H128.168C129.851 26.4532 130.803 27.741 130.803 28.8453C130.803 29.9384 129.839 31.2373 128.168 31.2373ZM142.05 29.243C140.417 29.243 138.733 29.9133 138.037 31.3736L140.03 32.1413C140.459 31.3736 141.245 31.1121 142.077 31.1121C143.241 31.1121 144.418 31.7574 144.445 32.9089V33.0564C144.043 32.845 143.16 32.5223 142.104 32.5223C139.951 32.5223 137.769 33.6126 137.769 35.657C137.769 37.5289 139.534 38.7305 141.5 38.7305C143.01 38.7305 143.841 38.0991 144.361 37.3676H144.442V38.4468H146.609V33.1064C146.609 30.6198 144.616 29.243 142.05 29.243ZM141.767 36.8781C141.032 36.8781 140.003 36.5443 140.003 35.6876C140.003 34.6084 141.287 34.1995 142.383 34.1995C143.373 34.1995 143.841 34.397 144.43 34.6696C144.268 35.9212 143.127 36.8669 141.767 36.8781ZM154.515 29.5406L151.933 35.5875H151.852L149.178 29.5406H146.759L150.772 37.9934L148.485 42.6913H150.826L157 29.5406H154.515ZM134.279 38.4635H136.527V24.5229H134.279V38.4635Z" fill="#1A1A1A"></path> <path d="M19.5402 11.68C19.1533 12.1561 18.9624 12.7608 19.0061 13.3717V40.1003C18.9648 40.717 19.1699 41.325 19.5766 41.792L19.6615 41.8887L34.6626 26.9172V26.5547L19.6251 11.5954L19.5402 11.68Z" fill="url(#paint0_linear)"></path> <path d="M39.6401 31.9076L34.6641 26.9171V26.5546L39.6401 21.5641L39.7494 21.6366L45.7085 24.9959C47.4077 25.9504 47.4077 27.5213 45.7085 28.488L39.7736 31.8472L39.6401 31.9076Z" fill="url(#paint1_linear)"></path> <path d="M39.7832 31.8471L34.6615 26.7358L19.5391 41.7918C19.882 42.0958 20.321 42.2706 20.7799 42.2861C21.2387 42.3015 21.6886 42.1566 22.0514 41.8764L39.7832 31.8471Z" fill="url(#paint2_linear)"></path> <path d="M39.7832 21.6365L22.0514 11.6072C21.6909 11.3231 21.2415 11.1747 20.782 11.188C20.3225 11.2012 19.8824 11.3753 19.5391 11.6797L34.6615 26.7357L39.7832 21.6365Z" fill="url(#paint3_linear)"></path> <defs> <linearGradient id="paint0_linear" x1="33.3275" y1="13.0937" x2="13.0517" y2="33.4591" gradientUnits="userSpaceOnUse"> <stop stop-color="#00A0FF"></stop> <stop offset="0.01" stop-color="#00A1FF"></stop> <stop offset="0.26" stop-color="#00BEFF"></stop> <stop offset="0.51" stop-color="#00D2FF"></stop> <stop offset="0.76" stop-color="#00DFFF"></stop> <stop offset="1" stop-color="#00E3FF"></stop> </linearGradient> <linearGradient id="paint1_linear" x1="47.9296" y1="26.7359" x2="18.5707" y2="26.7359" gradientUnits="userSpaceOnUse"> <stop stop-color="#FFE000"></stop> <stop offset="0.41" stop-color="#FFBD00"></stop> <stop offset="0.78" stop-color="#FFA500"></stop> <stop offset="1" stop-color="#FF9C00"></stop> </linearGradient> <linearGradient id="paint2_linear" x1="37.0039" y1="29.515" x2="9.50212" y2="57.126" gradientUnits="userSpaceOnUse"> <stop stop-color="#FF3A44"></stop> <stop offset="1" stop-color="#C31162"></stop> </linearGradient> <linearGradient id="paint3_linear" x1="15.7281" y1="2.78628" x2="28.0048" y2="15.1171" gradientUnits="userSpaceOnUse"> <stop stop-color="#32A071"></stop> <stop offset="0.07" stop-color="#2DA771"></stop> <stop offset="0.48" stop-color="#15CF74"></stop> <stop offset="0.8" stop-color="#06E775"></stop> <stop offset="1" stop-color="#00F076"></stop> </linearGradient> </defs> </svg> 