<?xml version="1.0" encoding="UTF-8"?> <svg xmlns="http://www.w3.org/2000/svg" width="300" height="840" viewBox="0 0 300 840" fill="none"> <rect width="300" height="840" fill="#242424"></rect> <path opacity="0.2" d="M125 665.5C35.0195 664.325 23.1568 717.247 0 740.261V840L300 839.96V721V617C300 617 292 617 284.492 623.563C252.005 651.963 209.643 670.01 192 670.5C167.322 671.185 143.746 665.5 125 665.5Z" fill="url(#paint0_linear)"></path> <path d="M0.708108 651.978C23.8083 647.063 40.2623 656.503 63.4587 667.453C86.6225 678.388 116.153 690.597 165.019 690.597V688.597C116.554 688.597 87.3254 676.508 64.3124 665.644C41.3319 654.796 24.1917 644.937 0.291892 650.022L0.708108 651.978ZM165.019 690.597C213.778 690.597 241.042 683.809 259.406 675.841C268.58 671.86 275.506 667.595 281.727 663.79C287.962 659.977 293.445 656.654 299.827 654.445L299.173 652.555C292.555 654.846 286.894 658.285 280.684 662.084C274.46 665.891 267.641 670.087 258.61 674.006C240.566 681.836 213.59 688.597 165.019 688.597V690.597Z" fill="#323232"></path> <path d="M124.559 665.419L124.546 666.419L124.559 666.419L124.559 665.419ZM197.651 669.914L197.8 670.903L197.651 669.914ZM1.71044 738.704C7.60065 732.758 12.6445 725.116 18.228 717.161C23.8345 709.173 30.0299 700.795 38.29 693.192C54.7603 678.03 79.5759 665.822 124.546 666.419L124.573 664.419C79.1743 663.817 53.8385 676.161 36.9355 691.72C28.5088 699.477 22.212 708.003 16.5909 716.012C10.9468 724.054 6.02764 731.504 0.289561 737.297L1.71044 738.704ZM124.559 666.419C133.891 666.419 145.916 668.448 158.849 670.043C171.713 671.63 185.396 672.771 197.8 670.903L197.502 668.925C185.389 670.749 171.94 669.642 159.094 668.058C146.317 666.483 134.055 664.419 124.559 664.419L124.559 666.419ZM197.8 670.903C212.907 668.628 230.748 661.078 248.6 650.251C266.465 639.416 284.405 625.26 299.713 609.701L298.287 608.299C283.095 623.74 265.285 637.793 247.563 648.541C229.828 659.297 212.245 666.705 197.502 668.925L197.8 670.903Z" fill="#2E2E2E"></path> <defs> <linearGradient id="paint0_linear" x1="-56.243" y1="702.589" x2="1049.37" y2="705.071" gradientUnits="userSpaceOnUse"> <stop stop-color="#131313"></stop> <stop offset="1" stop-color="#242424"></stop> </linearGradient> </defs> </svg> 