<?xml version="1.0" encoding="UTF-8"?> <svg xmlns="http://www.w3.org/2000/svg" width="64" height="64" viewBox="0 0 64 64" fill="none"> <circle opacity="0.5" cx="32" cy="32" r="31.5" transform="rotate(-180 32 32)" stroke="#333333"></circle> <g clip-path="url(#clip0)"> <path d="M23.7391 32.7354L40.4072 32.7354C40.8134 32.7354 41.1426 32.4059 41.1426 32C41.1426 31.594 40.8134 31.2646 40.4072 31.2646L23.7391 31.2646C23.3329 31.2646 23.0037 31.5938 23.0037 32C23.0037 32.4062 23.3329 32.7354 23.7391 32.7354Z" fill="white"></path> <path d="M23.0726 32.5201L30.2789 39.7266C30.5662 40.0137 31.0314 40.0137 31.3187 39.7266C31.606 39.4393 31.606 38.9736 31.3187 38.6866L24.6323 31.9999L31.3187 25.3133C31.606 25.0262 31.606 24.5605 31.3187 24.2735C31.1751 24.1298 30.9871 24.058 30.7988 24.058C30.6106 24.058 30.4226 24.1298 30.2789 24.2735L23.0726 31.48C22.7853 31.7673 22.7853 32.233 23.0726 32.5201Z" fill="white"></path> </g> <defs> <clipPath id="clip0"> <rect width="18.2857" height="18.2857" fill="white" transform="translate(41.1426 41.1428) rotate(-180)"></rect> </clipPath> </defs> </svg> 