<?xml version="1.0" encoding="UTF-8"?> <svg xmlns="http://www.w3.org/2000/svg" width="104" height="32" viewBox="0 0 104 32" fill="none"> <path d="M5.88673 31.4894L5.89122 31.4895C6.15487 31.4951 6.41349 31.4983 6.67812 31.4983L96.3645 31.5H96.3654L97.3206 31.4983H97.3215C97.5801 31.4983 97.8469 31.4951 98.1019 31.4895L98.1072 31.4894C98.6354 31.4833 99.1624 31.4397 99.6837 31.359C100.148 31.2842 100.597 31.1437 101.016 30.9426L5.88673 31.4894ZM5.88673 31.4894C5.35861 31.4829 4.83176 31.4393 4.31051 31.3591C3.84954 31.2836 3.40356 31.1435 2.98725 30.9438M5.88673 31.4894L2.98725 30.9438M2.98725 30.9438C2.57788 30.7473 2.20562 30.4901 1.88433 30.1828L1.88436 30.1828L1.87957 30.1783C1.55419 29.8752 1.28435 29.5245 1.07997 29.1408L1.07953 29.14C0.871031 28.7503 0.727143 28.3334 0.652351 27.9038L0.652278 27.9034C0.566132 27.411 0.519535 26.9132 0.512867 26.4143L0.512951 26.4143L0.512661 26.4052C0.510027 26.322 0.506854 26.1358 0.504303 25.9654L0.501186 25.745L0.500284 25.6763L0.500044 25.6575L0.5 25.654V6.33558L0.500042 6.33247L0.500297 6.31392L0.501248 6.24629L0.504482 6.02957C0.507097 5.86241 0.510283 5.6795 0.512726 5.59903L0.512803 5.59903L0.512915 5.59026C0.519298 5.09222 0.565615 4.59531 0.651488 4.10381L0.651552 4.10344C0.726536 3.67235 0.870639 3.25393 1.0794 2.8627L1.07986 2.86183C1.28374 2.4779 1.5524 2.12661 1.87618 1.82204L1.87618 1.82204L1.8781 1.82022C2.20252 1.51178 2.57681 1.25263 2.98772 1.05281C3.40256 0.854133 3.84714 0.715304 4.30659 0.641338C4.82969 0.560257 5.35851 0.51641 5.8886 0.51018L5.88914 0.510173L6.68175 0.5H97.3138H97.3171L98.1159 0.510582L98.1168 0.510593C98.6417 0.516508 99.1653 0.559926 99.6832 0.640463C100.148 0.715429 100.598 0.855334 101.018 1.05522C101.841 1.4581 102.506 2.09234 102.924 2.86511C103.129 3.25309 103.271 3.66743 103.345 4.09412L103.345 4.09514C103.432 4.59124 103.48 5.09262 103.491 5.59532C103.493 5.82837 103.493 6.0792 103.493 6.33219H103.493L103.493 6.34329C103.5 6.65059 103.5 6.94376 103.5 7.24553V24.7536C103.5 25.0585 103.5 25.3492 103.493 25.6414L103.493 25.6414V25.653C103.493 25.9251 103.493 26.1705 103.49 26.4225M2.98725 30.9438L101.016 30.9423C101.426 30.7445 101.799 30.4859 102.12 30.1771L102.124 30.1733C102.447 29.8705 102.715 29.5224 102.922 29.1422M103.49 26.4225C103.49 26.422 103.49 26.4214 103.49 26.4209L103.99 26.4308L103.49 26.4241C103.49 26.4236 103.49 26.423 103.49 26.4225ZM103.49 26.4225C103.48 26.9159 103.432 27.408 103.346 27.8948L103.346 27.8979C103.273 28.33 103.13 28.7497 102.922 29.1422M102.922 29.1422C102.922 29.1415 102.923 29.1408 102.923 29.14L103.363 29.3784M102.922 29.1422C102.922 29.1428 102.921 29.1434 102.921 29.144L103.363 29.3784M103.363 29.3784C103.596 28.9386 103.757 28.4674 103.839 27.9813L102.467 30.5376C102.828 30.1983 103.13 29.8071 103.363 29.3784Z" fill="#1A1A1A" stroke="#4B4B4B"></path> <path d="M26.6518 15.4234C26.66 14.7815 26.8291 14.1522 27.1435 13.594C27.4578 13.0358 27.9071 12.5668 28.4496 12.2306C28.105 11.7345 27.6503 11.3262 27.1218 11.0382C26.5932 10.7502 26.0053 10.5903 25.4048 10.5714C24.1238 10.4359 22.8818 11.3441 22.229 11.3441C21.5636 11.3441 20.5585 10.5849 19.4762 10.6073C18.7761 10.6301 18.0938 10.8353 17.4958 11.2029C16.8978 11.5705 16.4045 12.088 16.0639 12.7049C14.5885 15.2797 15.689 19.0638 17.1023 21.1451C17.8094 22.1643 18.6358 23.3027 19.7172 23.2623C20.7753 23.2181 21.1705 22.5822 22.4478 22.5822C23.7132 22.5822 24.084 23.2623 25.1873 23.2367C26.3228 23.2181 27.0381 22.213 27.7205 21.1842C28.2285 20.458 28.6195 19.6554 28.8788 18.8062C28.2192 18.5249 27.6562 18.0542 27.2602 17.4526C26.8642 16.8511 26.6526 16.1453 26.6518 15.4234Z" fill="white"></path> <path d="M24.5705 9.20272C25.1896 8.45359 25.4946 7.49071 25.4207 6.51855C24.4749 6.61869 23.6012 7.07434 22.9737 7.79473C22.6669 8.14666 22.432 8.55608 22.2823 8.9996C22.1326 9.44311 22.071 9.91202 22.1012 10.3795C22.5743 10.3844 23.0423 10.2811 23.47 10.0772C23.8978 9.87338 24.274 9.57437 24.5705 9.20272V9.20272Z" fill="white"></path> <path d="M39.3475 20.7846H35.875L35.0411 23.2666H33.5703L36.8594 14.084H38.3875L41.6765 23.2666H40.1807L39.3475 20.7846ZM36.2347 19.6393H38.9872L37.6303 15.6113H37.5923L36.2347 19.6393Z" fill="white"></path> <path d="M48.7799 19.9191C48.7799 21.9995 47.6752 23.3362 46.0081 23.3362C45.5858 23.3585 45.1658 23.2604 44.7962 23.0533C44.4266 22.8461 44.1224 22.5382 43.9183 22.1649H43.8868V25.4809H42.5234V16.5713H43.8431V17.6848H43.8681C44.0816 17.3133 44.391 17.007 44.7634 16.7986C45.1358 16.5901 45.5573 16.4874 45.983 16.5012C47.6687 16.5012 48.7799 17.8444 48.7799 19.9191ZM47.3786 19.9191C47.3786 18.5636 46.6837 17.6725 45.6234 17.6725C44.5817 17.6725 43.8811 18.5824 43.8811 19.9191C43.8811 21.268 44.5817 22.1714 45.6234 22.1714C46.6837 22.1714 47.3786 21.2868 47.3786 19.9191H47.3786Z" fill="white"></path> <path d="M56.0889 19.9191C56.0889 21.9995 54.9838 23.3362 53.3167 23.3362C52.8944 23.3585 52.4744 23.2604 52.1048 23.0533C51.7352 22.8461 51.431 22.5382 51.2269 22.1649H51.1954V25.4809H49.832V16.5713H51.1517V17.6848H51.1767C51.3902 17.3133 51.6996 17.007 52.072 16.7986C52.4444 16.5901 52.8659 16.4874 53.2916 16.5012C54.9774 16.5012 56.0889 17.8444 56.0889 19.9191ZM54.6872 19.9191C54.6872 18.5636 53.9923 17.6725 52.932 17.6725C51.8903 17.6725 51.1897 18.5824 51.1897 19.9191C51.1897 21.268 51.8903 22.1714 52.932 22.1714C53.9923 22.1714 54.6872 21.2868 54.6872 19.9191V19.9191Z" fill="white"></path> <path d="M60.923 20.7079C61.024 21.6185 61.9016 22.2164 63.1009 22.2164C64.25 22.2164 65.0767 21.6185 65.0767 20.7974C65.0767 20.0847 64.5781 19.6579 63.3975 19.3654L62.2168 19.0787C60.544 18.6715 59.7674 17.8829 59.7674 16.6033C59.7674 15.0189 61.1372 13.9307 63.0815 13.9307C65.0072 13.9307 66.3269 15.0189 66.3713 16.6033H64.9951C64.9127 15.6869 64.1611 15.1337 63.0629 15.1337C61.9646 15.1337 61.2131 15.6934 61.2131 16.508C61.2131 17.1571 61.6931 17.5392 62.8673 17.8316L63.871 18.08C65.7401 18.5256 66.516 19.2824 66.516 20.6255C66.516 22.3434 65.1591 23.4194 62.9998 23.4194C60.9795 23.4194 59.6155 22.3687 59.5273 20.7078L60.923 20.7079Z" fill="white"></path> <path d="M69.4566 14.9873V16.5717H70.7196V17.6599H69.4566V21.3507C69.4566 21.9241 69.7095 22.1913 70.2647 22.1913C70.4147 22.1886 70.5644 22.178 70.7132 22.1595V23.2412C70.4636 23.2882 70.2098 23.3095 69.9559 23.3048C68.6112 23.3048 68.0868 22.7957 68.0868 21.4973V17.6599H67.1211V16.5717H68.0868V14.9873H69.4566Z" fill="white"></path> <path d="M71.4531 19.9184C71.4531 17.8119 72.6839 16.4883 74.6032 16.4883C76.5289 16.4883 77.754 17.8119 77.754 19.9184C77.754 22.0306 76.5354 23.3485 74.6032 23.3485C72.6717 23.3485 71.4531 22.0306 71.4531 19.9184ZM76.3649 19.9184C76.3649 18.4734 75.7079 17.6206 74.6032 17.6206C73.4985 17.6206 72.8415 18.4799 72.8415 19.9184C72.8415 21.3691 73.4985 22.2155 74.6032 22.2155C75.7079 22.2155 76.3649 21.3691 76.3649 19.9184H76.3649Z" fill="white"></path> <path d="M78.8789 16.5712H80.1792V17.7107H80.2108C80.2987 17.3548 80.5056 17.0403 80.7965 16.82C81.0875 16.5998 81.4448 16.4872 81.8084 16.5012C81.9655 16.5006 82.1222 16.5178 82.2755 16.5524V17.8378C82.0771 17.7767 81.8702 17.7487 81.6629 17.7548C81.4648 17.7467 81.2674 17.7819 81.0841 17.858C80.9008 17.934 80.736 18.0492 80.6011 18.1955C80.4661 18.3419 80.3642 18.5159 80.3022 18.7057C80.2403 18.8955 80.2198 19.0966 80.2423 19.2951V23.2661H78.8789L78.8789 16.5712Z" fill="white"></path> <path d="M88.5578 21.2991C88.3744 22.5145 87.2002 23.3485 85.6979 23.3485C83.7657 23.3485 82.5664 22.0436 82.5664 19.9502C82.5664 17.8502 83.7721 16.4883 85.6405 16.4883C87.4781 16.4883 88.6337 17.7607 88.6337 19.7906V20.2614H83.9426V20.3445C83.921 20.5908 83.9516 20.8391 84.0324 21.0726C84.1132 21.3062 84.2424 21.5197 84.4114 21.6991C84.5804 21.8784 84.7853 22.0195 85.0126 22.1129C85.2398 22.2063 85.4842 22.2499 85.7294 22.2408C86.0516 22.2712 86.3749 22.196 86.6512 22.0263C86.9276 21.8567 87.1422 21.6016 87.2632 21.2991L88.5578 21.2991ZM83.9491 19.301H87.2697C87.2819 19.0794 87.2486 18.8577 87.1718 18.6498C87.095 18.4419 86.9764 18.2522 86.8234 18.0926C86.6705 17.9331 86.4864 17.8071 86.2829 17.7226C86.0793 17.6382 85.8606 17.597 85.6405 17.6018C85.4185 17.6005 85.1985 17.6435 84.993 17.7283C84.7876 17.8132 84.6008 17.9382 84.4436 18.0962C84.2863 18.2541 84.1617 18.4419 84.0768 18.6487C83.9919 18.8555 83.9485 19.0772 83.9491 19.301V19.301Z" fill="white"></path> <path d="M36.0616 7.17298C36.3474 7.1523 36.6342 7.19583 36.9013 7.30041C37.1685 7.40499 37.4092 7.56803 37.6063 7.77776C37.8033 7.98749 37.9517 8.23868 38.0408 8.51322C38.1298 8.78776 38.1573 9.07881 38.1213 9.36536C38.1213 10.775 37.3655 11.5852 36.0616 11.5852H34.4805V7.17298H36.0616ZM35.1603 10.9612H35.9857C36.1899 10.9735 36.3943 10.9398 36.5839 10.8624C36.7736 10.7851 36.9438 10.6661 37.0821 10.514C37.2203 10.362 37.3233 10.1809 37.3833 9.98371C37.4434 9.78656 37.4591 9.57839 37.4292 9.37435C37.4569 9.17112 37.4396 8.96424 37.3786 8.76853C37.3177 8.57282 37.2145 8.39313 37.0765 8.24233C36.9386 8.09154 36.7692 7.97336 36.5806 7.89629C36.392 7.81921 36.1888 7.78513 35.9857 7.7965H35.1603V10.9612Z" fill="white"></path> <path d="M38.8863 9.91809C38.8655 9.69927 38.8903 9.47849 38.9592 9.26991C39.028 9.06133 39.1394 8.86956 39.286 8.70689C39.4327 8.54422 39.6115 8.41425 39.8109 8.32531C40.0104 8.23637 40.226 8.19043 40.4441 8.19043C40.6622 8.19043 40.8779 8.23637 41.0773 8.32531C41.2767 8.41425 41.4555 8.54422 41.6022 8.70689C41.7489 8.86956 41.8602 9.06133 41.9291 9.26991C41.9979 9.47849 42.0227 9.69927 42.002 9.91809C42.0231 10.1371 41.9986 10.3582 41.9299 10.5671C41.8613 10.7761 41.75 10.9682 41.6033 11.1312C41.4566 11.2942 41.2776 11.4244 41.078 11.5135C40.8784 11.6027 40.6625 11.6487 40.4441 11.6487C40.2258 11.6487 40.0099 11.6027 39.8102 11.5135C39.6106 11.4244 39.4317 11.2942 39.285 11.1312C39.1382 10.9682 39.027 10.7761 38.9583 10.5671C38.8897 10.3582 38.8651 10.1371 38.8863 9.91809V9.91809ZM41.3314 9.91809C41.3314 9.19632 41.0097 8.77424 40.4452 8.77424C39.8785 8.77424 39.5597 9.19632 39.5597 9.9181C39.5597 10.6456 39.8785 11.0645 40.4452 11.0645C41.0097 11.0645 41.3314 10.6427 41.3314 9.91809H41.3314Z" fill="white"></path> <path d="M46.1475 11.5846H45.4712L44.7884 9.13227H44.7369L44.057 11.5846H43.3871L42.4766 8.25488H43.1378L43.7296 10.7957H43.7783L44.4575 8.25488H45.0829L45.762 10.7957H45.8136L46.4025 8.25488H47.0545L46.1475 11.5846Z" fill="white"></path> <path d="M47.8164 8.25505H48.444V8.78401H48.4927C48.5753 8.59403 48.7147 8.43477 48.8914 8.32843C49.0681 8.22209 49.2734 8.17397 49.4785 8.19078C49.6392 8.1786 49.8006 8.20303 49.9507 8.26225C50.1008 8.32148 50.2358 8.41399 50.3456 8.53293C50.4554 8.65187 50.5372 8.79418 50.5851 8.94934C50.6329 9.10449 50.6455 9.2685 50.6219 9.42923V11.5848H49.97V9.59425C49.97 9.05915 49.7393 8.79304 49.2571 8.79304C49.148 8.78792 49.039 8.80664 48.9378 8.84792C48.8365 8.88921 48.7453 8.95208 48.6703 9.03222C48.5954 9.11237 48.5386 9.2079 48.5037 9.31226C48.4689 9.41662 48.4568 9.52734 48.4683 9.63685V11.5848H47.8164L47.8164 8.25505Z" fill="white"></path> <path d="M51.665 6.95508H52.317V11.5846H51.665V6.95508Z" fill="white"></path> <path d="M53.2222 9.91815C53.2014 9.69932 53.2263 9.47853 53.2952 9.26994C53.364 9.06135 53.4754 8.86957 53.6221 8.7069C53.7687 8.54423 53.9476 8.41425 54.147 8.32531C54.3464 8.23637 54.5621 8.19043 54.7802 8.19043C54.9983 8.19043 55.214 8.23637 55.4134 8.32531C55.6129 8.41425 55.7917 8.54423 55.9384 8.7069C56.0851 8.86957 56.1964 9.06135 56.2653 9.26994C56.3341 9.47853 56.359 9.69932 56.3382 9.91815C56.3594 10.1372 56.3348 10.3583 56.2661 10.5672C56.1975 10.7761 56.0862 10.9682 55.9394 11.1312C55.7927 11.2942 55.6138 11.4244 55.4141 11.5136C55.2145 11.6027 54.9986 11.6487 54.7802 11.6487C54.5619 11.6487 54.3459 11.6027 54.1463 11.5136C53.9467 11.4244 53.7677 11.2942 53.621 11.1312C53.4743 10.9682 53.363 10.7761 53.2943 10.5672C53.2256 10.3583 53.2011 10.1372 53.2222 9.91815V9.91815ZM55.6673 9.91815C55.6673 9.19639 55.3456 8.7743 54.7811 8.7743C54.2144 8.7743 53.8956 9.19639 53.8956 9.91816C53.8956 10.6457 54.2145 11.0645 54.7811 11.0645C55.3456 11.0645 55.6673 10.6428 55.6673 9.91815H55.6673Z" fill="white"></path> <path d="M57.0234 10.6428C57.0234 10.0434 57.4662 9.69787 58.2521 9.64876L59.1469 9.59677V9.30937C59.1469 8.95769 58.9162 8.7591 58.4706 8.7591C58.1067 8.7591 57.8545 8.89378 57.7821 9.1292H57.151C57.2176 8.55727 57.7513 8.19043 58.5007 8.19043C59.3289 8.19043 59.796 8.60601 59.796 9.30937V11.5844H59.1684V11.1165H59.1168C59.0121 11.2843 58.8651 11.4212 58.6908 11.513C58.5164 11.6049 58.3211 11.6485 58.1246 11.6393C57.9859 11.6538 57.8457 11.6389 57.7131 11.5955C57.5805 11.5521 57.4584 11.4812 57.3547 11.3873C57.2509 11.2934 57.1678 11.1786 57.1108 11.0504C57.0537 10.9222 57.024 10.7833 57.0234 10.6428V10.6428ZM59.1469 10.3583V10.0799L58.3402 10.1319C57.8853 10.1626 57.679 10.3185 57.679 10.6121C57.679 10.9118 57.9369 11.0862 58.2915 11.0862C58.3954 11.0968 58.5004 11.0862 58.6002 11.0551C58.6999 11.0239 58.7925 10.9729 58.8723 10.905C58.9521 10.8371 59.0175 10.7537 59.0647 10.6597C59.1119 10.5658 59.1398 10.4633 59.1469 10.3583V10.3583Z" fill="white"></path> <path d="M60.6523 9.91835C60.6523 8.86621 61.1889 8.19968 62.0236 8.19968C62.23 8.19009 62.4349 8.23993 62.6143 8.34338C62.7937 8.44683 62.9401 8.5996 63.0366 8.78385H63.0853V6.95508H63.7372V11.5846H63.1125V11.0586H63.0609C62.9571 11.2416 62.8055 11.3925 62.6226 11.4949C62.4398 11.5973 62.2326 11.6473 62.0236 11.6395C61.1832 11.6396 60.6523 10.973 60.6523 9.91835ZM61.3258 9.91835C61.3258 10.6246 61.6561 11.0496 62.2084 11.0496C62.7579 11.0496 63.0975 10.6185 63.0975 9.92124C63.0975 9.22727 62.7543 8.79002 62.2084 8.79002C61.6596 8.79002 61.3258 9.21788 61.3258 9.91835H61.3258Z" fill="white"></path> <path d="M66.4371 9.91809C66.4163 9.69927 66.4411 9.47849 66.51 9.26991C66.5788 9.06133 66.6901 8.86956 66.8368 8.70689C66.9835 8.54422 67.1623 8.41425 67.3617 8.32531C67.5611 8.23637 67.7768 8.19043 67.9949 8.19043C68.213 8.19043 68.4287 8.23637 68.6281 8.32531C68.8275 8.41425 69.0063 8.54422 69.153 8.70689C69.2997 8.86956 69.411 9.06133 69.4798 9.26991C69.5487 9.47849 69.5735 9.69927 69.5527 9.91809C69.5739 10.1371 69.5494 10.3582 69.4807 10.5671C69.412 10.7761 69.3008 10.9682 69.1541 11.1312C69.0073 11.2942 68.8284 11.4244 68.6288 11.5135C68.4292 11.6027 68.2132 11.6487 67.9949 11.6487C67.7766 11.6487 67.5606 11.6027 67.361 11.5135C67.1614 11.4244 66.9824 11.2942 66.8357 11.1312C66.689 10.9682 66.5778 10.7761 66.5091 10.5671C66.4404 10.3582 66.4159 10.1371 66.4371 9.91809V9.91809ZM68.8822 9.91809C68.8822 9.19632 68.5605 8.77424 67.996 8.77424C67.4293 8.77424 67.1105 9.19632 67.1105 9.9181C67.1105 10.6456 67.4293 11.0645 67.996 11.0645C68.5605 11.0645 68.8822 10.6427 68.8822 9.91809Z" fill="white"></path> <path d="M70.4258 8.25505H71.0534V8.78401H71.1021C71.1847 8.59403 71.3241 8.43477 71.5008 8.32843C71.6775 8.22209 71.8827 8.17397 72.0879 8.19078C72.2486 8.1786 72.41 8.20303 72.5601 8.26225C72.7102 8.32148 72.8451 8.41399 72.9549 8.53293C73.0648 8.65187 73.1466 8.79418 73.1944 8.94934C73.2423 9.10449 73.2549 9.2685 73.2313 9.42923V11.5848H72.5793V9.59425C72.5793 9.05915 72.3486 8.79304 71.8665 8.79304C71.7574 8.78792 71.6484 8.80664 71.5471 8.84792C71.4459 8.88921 71.3546 8.95208 71.2797 9.03222C71.2048 9.11237 71.148 9.2079 71.1131 9.31226C71.0782 9.41662 71.0662 9.52734 71.0777 9.63685V11.5848H70.4258V8.25505Z" fill="white"></path> <path d="M76.9154 7.42578V8.26995H77.6311V8.82346H76.9154V10.5356C76.9154 10.8844 77.0579 11.0372 77.3825 11.0372C77.4655 11.0369 77.5485 11.0318 77.6311 11.022V11.5694C77.514 11.5905 77.3954 11.6017 77.2764 11.6029C76.5514 11.6029 76.2627 11.3459 76.2627 10.7039V8.82344H75.7383V8.26992H76.2627V7.42578H76.9154Z" fill="white"></path> <path d="M78.5195 6.95508H79.1657V8.79001H79.2173C79.304 8.59826 79.4472 8.4381 79.6274 8.33136C79.8077 8.22462 80.0162 8.17649 80.2246 8.19353C80.3845 8.18476 80.5443 8.21167 80.6927 8.27234C80.8411 8.33301 80.9744 8.42594 81.0831 8.5445C81.1917 8.66306 81.2731 8.80434 81.3213 8.95825C81.3696 9.11215 81.3836 9.2749 81.3622 9.43487V11.5847H80.7097V9.59699C80.7097 9.06514 80.4639 8.79578 80.0033 8.79578C79.8912 8.78652 79.7785 8.80204 79.673 8.84128C79.5676 8.88051 79.4719 8.94249 79.3926 9.0229C79.3134 9.10331 79.2526 9.20019 79.2144 9.30678C79.1762 9.41336 79.1615 9.52707 79.1715 9.63995V11.5846H78.5196L78.5195 6.95508Z" fill="white"></path> <path d="M85.1629 10.6854C85.0743 10.9898 84.8824 11.253 84.6207 11.4291C84.359 11.6052 84.0443 11.683 83.7315 11.6488C83.5138 11.6545 83.2975 11.6125 83.0976 11.5256C82.8977 11.4387 82.719 11.309 82.5738 11.1455C82.4286 10.982 82.3204 10.7885 82.2569 10.5787C82.1933 10.3688 82.1757 10.1475 82.2055 9.9301C82.1765 9.71204 82.1943 9.49025 82.2578 9.27975C82.3212 9.06924 82.4288 8.87494 82.5732 8.70998C82.7177 8.54503 82.8956 8.41328 83.0949 8.32365C83.2942 8.23402 83.5103 8.18861 83.7286 8.19049C84.6477 8.19049 85.2022 8.82346 85.2022 9.86906V10.0984H82.8696V10.1352C82.8594 10.2574 82.8746 10.3804 82.9143 10.4963C82.954 10.6122 83.0173 10.7185 83.1002 10.8083C83.183 10.8981 83.2835 10.9695 83.3953 11.0178C83.5071 11.0662 83.6277 11.0905 83.7494 11.0891C83.9053 11.108 84.0633 11.0797 84.2032 11.0078C84.3432 10.9359 84.4588 10.8237 84.5353 10.6854L85.1629 10.6854ZM82.8696 9.61236H84.5381C84.5463 9.5006 84.5313 9.38835 84.4939 9.28282C84.4565 9.17729 84.3976 9.0808 84.3211 8.99957C84.2445 8.91833 84.1519 8.85414 84.0492 8.81112C83.9466 8.7681 83.8361 8.74721 83.725 8.74978C83.6122 8.74835 83.5003 8.76969 83.3959 8.81254C83.2914 8.85538 83.1966 8.91887 83.1169 8.99926C83.0371 9.07965 82.9742 9.17531 82.9317 9.28061C82.8893 9.3859 82.8681 9.4987 82.8696 9.61236H82.8696Z" fill="white"></path> </svg> 