<?xml version="1.0" encoding="UTF-8"?> <svg xmlns="http://www.w3.org/2000/svg" width="20" height="20" viewBox="0 0 20 20" fill="none"> <path fill-rule="evenodd" clip-rule="evenodd" d="M0 0V20H20V0H0ZM16.681 13.273C16.5113 14.0093 15.909 14.5529 15.184 14.6339C13.4678 14.8252 11.7302 14.8265 9.9993 14.8252C8.26914 14.8265 6.53152 14.8252 4.81477 14.6339C4.08958 14.553 3.48734 14.0093 3.31851 13.273C3.07692 12.2248 3.07692 11.0796 3.07692 9.99996C3.07692 8.92031 3.07978 7.77565 3.32114 6.72743C3.48998 5.99046 4.09244 5.44752 4.8167 5.36659C6.53363 5.17473 8.272 5.17398 10.0022 5.17473C11.7321 5.17402 13.4699 5.17473 15.1867 5.36659C15.9119 5.44752 16.5141 5.99046 16.6837 6.72743C16.9252 7.77565 16.9231 8.92031 16.9231 9.99996C16.9231 11.0796 16.9224 12.2248 16.681 13.273Z" fill="#646464"></path> <path fill-rule="evenodd" clip-rule="evenodd" d="M8.21289 12.1492C9.68397 11.3863 11.142 10.6298 12.6146 9.86644C11.1378 9.09589 9.67988 8.33585 8.21289 7.57031V12.1492Z" fill="#646464"></path> </svg> 