<?xml version="1.0" encoding="UTF-8"?> <!-- Generator: Adobe Illustrator 23.0.2, SVG Export Plug-In . SVG Version: 6.00 Build 0) --> <svg xmlns="http://www.w3.org/2000/svg" xmlns:xlink="http://www.w3.org/1999/xlink" id="logo" x="0px" y="0px" viewBox="0 0 683.2 174" style="enable-background:new 0 0 683.2 174;" xml:space="preserve"> <style type="text/css"> .st0{fill-rule:evenodd;clip-rule:evenodd;fill:#FFFFFF;} .st1{fill:#FFC711;} .st2{fill:#CA0000;} .st3{fill:#FF0000;} .st4{fill:#6627E3;} .st5{fill:none;} .st6{fill:#FFFFFF;} </style> <path id="STEPS_копия" class="st0" d="M273.7,144.9c24.3,0,40.4-12.4,40.4-33.2c0-19.4-14.3-26.9-37.3-32 c-13.9-3.2-17.3-5.2-17.3-9.9c0-3.9,3.3-6.8,10-6.8c8.9,0,18.9,3.5,28,10l13.9-19.9c-10.9-8.9-24.1-13.5-41.1-13.5 c-24,0-38.7,13.7-38.7,32.6c0,21.2,16.4,27.4,37.7,32.3c13.6,3.2,16.9,5.5,16.9,9.8c0,4.7-4,7.3-11.4,7.3 c-11.6,0-22.6-4.2-32.4-12.2L226.8,128C239.1,139.2,256,144.9,273.7,144.9z M347.2,143.2h27.7V66H402V41.3h-81.8V66h27.1v77.2H347.2 z M414.1,143.2h79.2v-24h-51.7V103h42.1V80.7h-42.1V65.3h51v-24h-78.5L414.1,143.2L414.1,143.2z M507.4,143.2h27.7V114h13.7 c24.9,0,43-12.7,43-36.7c0-22.9-16.3-36.1-41.6-36.1h-42.9L507.4,143.2L507.4,143.2z M535.1,91.9V65h13c10,0,16,4.7,16,13.4 c0,8.3-6,13.5-15.9,13.5H535.1L535.1,91.9z M642.8,144.9c24.3,0,40.4-12.4,40.4-33.2c0-19.4-14.3-26.9-37.3-32 c-13.9-3.2-17.3-5.2-17.3-9.9c0-3.9,3.3-6.8,10-6.8c8.9,0,18.9,3.5,28,10l13.9-19.9c-10.9-8.9-24.1-13.5-41.1-13.5 c-24,0-38.7,13.7-38.7,32.6c0,21.2,16.4,27.4,37.7,32.3c13.6,3.2,16.9,5.5,16.9,9.8c0,4.7-4,7.3-11.4,7.3 c-11.6,0-22.6-4.2-32.4-12.2L595.9,128C608.2,139.2,625.1,144.9,642.8,144.9z"></path> <rect id="Прямоугольник_1_копия" x="19" y="31" class="st1" width="154" height="112"></rect> <rect id="Прямоугольник_1_копия_2" x="47" y="0" class="st2" width="147" height="89"></rect> <rect id="Прямоугольник_1_копия_4" x="47" y="31" class="st3" width="126" height="58"></rect> <rect id="Прямоугольник_1" y="75" class="st4" width="154" height="99"></rect> <rect id="Прямоугольник_1_копия_3" x="19" y="75" class="st2" width="135" height="68"></rect> <g> <polygon class="st5" points="135.9,74.7 128.1,94.3 143.6,94.3 "></polygon> <polygon class="st5" points="154.2,122 149.1,109.2 122.5,109.2 117.7,122 80.6,122 80.6,58.9 55.8,122 38,122 19,75 19,143 173,143 173,122 "></polygon> <path class="st6" d="M55.8,122l24.8-63.1V122h37.1l4.8-12.8h26.6l5.1,12.8H173v-4l-27.7-66h-18.4L100,115.5V52H62.5L47.1,96.2 L31.3,52H19v23l19,47H55.8z M135.9,74.7l7.7,19.6h-15.5L135.9,74.7z"></path> </g> </svg> 