<?xml version="1.0" encoding="UTF-8"?> <svg xmlns="http://www.w3.org/2000/svg" width="176" height="54" viewBox="0 0 176 54" fill="none"> <path d="M11.3014 53.9972C10.8467 53.9972 10.4029 53.9917 9.9517 53.9821C9.01703 53.9706 8.08455 53.8936 7.16189 53.7518C6.30157 53.6117 5.46814 53.351 4.68911 52.9784C3.91722 52.6088 3.21319 52.1242 2.604 51.5432C1.98599 50.9691 1.47147 50.3031 1.08082 49.5718C0.685876 48.8357 0.412548 48.0468 0.270363 47.2324C0.116814 46.3573 0.0337385 45.4724 0.0218512 44.5854C0.0123883 44.2877 0 43.2964 0 43.2964V10.6856C0 10.6856 0.0131943 9.70951 0.0219258 9.42275C0.0333078 8.53718 0.115901 7.6537 0.26899 6.77997C0.411438 5.96334 0.684977 5.17208 1.08014 4.4336C1.46934 3.70279 1.98101 3.03635 2.5953 2.46013C3.20889 1.87843 3.91517 1.39137 4.68838 1.01671C5.46562 0.645275 6.29747 0.386426 7.15606 0.248839C8.08174 0.105646 9.01746 0.0282283 9.95537 0.0172368L11.3021 0H164.691L166.053 0.0179285C166.983 0.0283739 167.91 0.1051 168.827 0.247455C169.694 0.386768 170.535 0.647423 171.321 1.02085C172.87 1.77589 174.131 2.97043 174.926 4.43704C175.315 5.17043 175.584 5.95523 175.724 6.76481C175.879 7.64571 175.966 8.53613 175.984 9.42897C175.988 9.82876 175.988 10.2582 175.988 10.6856C176 11.215 176 11.7188 176 12.2268V41.7717C176 42.2845 176 42.785 175.988 43.2895C175.988 43.7486 175.988 44.1691 175.982 44.602C175.965 45.4789 175.88 46.3534 175.727 47.2185C175.588 48.0388 175.316 48.8339 174.921 49.576C174.528 50.2994 174.016 50.9596 173.405 51.5322C172.796 52.1164 172.09 52.6038 171.317 52.9757C170.533 53.3512 169.694 53.6128 168.827 53.7518C167.905 53.8944 166.972 53.9713 166.037 53.9821C165.6 53.9917 165.142 53.9972 164.698 53.9972L163.08 54L11.3014 53.9972Z" fill="white"></path> <path d="M45.1037 26.027C45.1175 24.944 45.4038 23.882 45.9357 22.94C46.4676 21.998 47.228 21.2065 48.146 20.6392C47.5628 19.8021 46.7934 19.1131 45.899 18.6271C45.0045 18.141 44.0097 17.8713 42.9934 17.8394C40.8254 17.6106 38.7237 19.1433 37.6189 19.1433C36.4928 19.1433 34.7919 17.8621 32.9603 17.9C31.7755 17.9384 30.6209 18.2847 29.6089 18.905C28.5969 19.5254 27.762 20.3986 27.1856 21.4397C24.6889 25.7847 26.5512 32.1704 28.943 35.6826C30.1396 37.4024 31.5382 39.3234 33.3681 39.2553C35.1589 39.1806 35.8277 38.1076 37.9892 38.1076C40.1307 38.1076 40.7582 39.2553 42.6253 39.212C44.5468 39.1806 45.7575 37.4845 46.9122 35.7484C47.7719 34.523 48.4335 33.1687 48.8725 31.7355C47.7561 31.261 46.8034 30.4666 46.1332 29.4514C45.463 28.4363 45.105 27.2453 45.1037 26.027Z" fill="#1A1A1A"></path> <path d="M41.5771 15.5295C42.6248 14.2654 43.141 12.6405 43.016 11C41.4153 11.169 39.9368 11.9379 38.8749 13.1535C38.3558 13.7474 37.9581 14.4383 37.7048 15.1868C37.4514 15.9352 37.3473 16.7265 37.3984 17.5154C38.199 17.5237 38.991 17.3492 39.7149 17.0053C40.4387 16.6613 41.0754 16.1567 41.5771 15.5295Z" fill="#1A1A1A"></path> <path d="M66.5927 35.0743H60.7162L59.305 39.2626H56.8159L62.382 23.767H64.9681L70.5342 39.2626H68.0027L66.5927 35.0743ZM61.3248 33.1416H65.9829L63.6866 26.3443H63.6223L61.3248 33.1416Z" fill="#1A1A1A"></path> <path d="M82.5532 33.6144C82.5532 37.1251 80.6837 39.3807 77.8625 39.3807C77.1478 39.4183 76.437 39.2529 75.8116 38.9033C75.1861 38.5537 74.6712 38.0342 74.3259 37.4042H74.2725V43H71.9653V27.965H74.1986V29.844H74.241C74.6022 29.217 75.1258 28.7002 75.756 28.3485C76.3862 27.9968 77.0995 27.8234 77.82 27.8467C80.6728 27.8468 82.5532 30.1133 82.5532 33.6144ZM80.1818 33.6144C80.1818 31.3271 79.0057 29.8233 77.2114 29.8233C75.4486 29.8233 74.2628 31.3587 74.2628 33.6144C74.2628 35.8907 75.4486 37.4152 77.2114 37.4152C79.0057 37.4152 80.1817 35.9224 80.1817 33.6144H80.1818Z" fill="#1A1A1A"></path> <path d="M94.9259 33.6144C94.9259 37.1251 93.0558 39.3807 90.2345 39.3807C89.5199 39.4183 88.8091 39.2529 88.1836 38.9033C87.5582 38.5537 87.0433 38.0342 86.698 37.4042H86.6446V43H84.3374V27.965H86.5706V29.844H86.6131C86.9743 29.217 87.4979 28.7002 88.1281 28.3485C88.7583 27.9968 89.4716 27.8234 90.1921 27.8467C93.0449 27.8468 94.9259 30.1133 94.9259 33.6144ZM92.5539 33.6144C92.5539 31.3271 91.3778 29.8233 89.5835 29.8233C87.8207 29.8233 86.6349 31.3587 86.6349 33.6144C86.6349 35.8907 87.8207 37.4152 89.5835 37.4152C91.3778 37.4152 92.5539 35.9224 92.5539 33.6144Z" fill="#1A1A1A"></path> <path d="M103.101 34.945C103.272 36.4816 104.757 37.4906 106.787 37.4906C108.731 37.4906 110.131 36.4816 110.131 35.096C110.131 33.8933 109.287 33.1731 107.289 32.6796L105.291 32.1958C102.46 31.5085 101.145 30.1778 101.145 28.0184C101.145 25.3448 103.464 23.5084 106.754 23.5084C110.013 23.5084 112.246 25.3448 112.321 28.0184H109.992C109.853 26.472 108.581 25.5386 106.722 25.5386C104.864 25.5386 103.592 26.483 103.592 27.8576C103.592 28.9531 104.404 29.5977 106.391 30.0912L108.09 30.5104C111.253 31.2623 112.566 32.5394 112.566 34.806C112.566 37.705 110.27 39.5207 106.616 39.5207C103.197 39.5207 100.888 37.7476 100.739 34.9449L103.101 34.945Z" fill="#1A1A1A"></path> <path d="M117.549 25.2913V27.9649H119.686V29.8013H117.549V36.0296C117.549 36.9971 117.977 37.448 118.916 37.448C119.17 37.4436 119.423 37.4257 119.675 37.3944V39.2198C119.253 39.2991 118.823 39.3351 118.394 39.327C116.118 39.327 115.23 38.4679 115.23 36.2769V29.8013H113.596V27.9649H115.23V25.2913H117.549Z" fill="#1A1A1A"></path> <path d="M120.92 33.6144C120.92 30.0597 123.003 27.826 126.251 27.826C129.51 27.826 131.583 30.0597 131.583 33.6144C131.583 37.1788 129.521 39.4027 126.251 39.4027C122.983 39.4027 120.92 37.1787 120.92 33.6144ZM129.233 33.6144C129.233 31.176 128.121 29.7368 126.251 29.7368C124.382 29.7368 123.27 31.1869 123.27 33.6144C123.27 36.0625 124.382 37.4907 126.251 37.4907C128.121 37.4907 129.233 36.0625 129.233 33.6144H129.233Z" fill="#1A1A1A"></path> <path d="M133.488 27.9649H135.689V29.8878H135.742C135.891 29.2873 136.241 28.7565 136.733 28.3848C137.226 28.0131 137.83 27.8231 138.446 27.8467C138.712 27.8458 138.977 27.8748 139.236 27.9332V30.1023C138.901 29.9992 138.55 29.9519 138.2 29.9622C137.864 29.9485 137.53 30.0079 137.22 30.1363C136.91 30.2647 136.631 30.459 136.403 30.7059C136.174 30.9529 136.002 31.2466 135.897 31.5669C135.792 31.8871 135.758 32.2264 135.795 32.5614V39.2625H133.488L133.488 27.9649Z" fill="#1A1A1A"></path> <path d="M149.872 35.9443C149.562 37.9952 147.575 39.4026 145.032 39.4026C141.762 39.4026 139.733 37.2006 139.733 33.6679C139.733 30.1243 141.773 27.826 144.935 27.826C148.045 27.826 150.001 29.9731 150.001 33.3986V34.1931H142.062V34.3333C142.025 34.7491 142.077 35.1679 142.214 35.562C142.351 35.9562 142.569 36.3165 142.855 36.6192C143.141 36.9218 143.488 37.1599 143.873 37.3175C144.257 37.4751 144.671 37.5487 145.086 37.5333C145.631 37.5846 146.178 37.4577 146.646 37.1714C147.113 36.8851 147.477 36.4547 147.681 35.9443L149.872 35.9443ZM142.073 32.5724H147.692C147.713 32.1986 147.657 31.8244 147.527 31.4735C147.397 31.1226 147.196 30.8025 146.937 30.5333C146.678 30.264 146.367 30.0515 146.022 29.909C145.678 29.7664 145.308 29.697 144.935 29.7051C144.56 29.7028 144.187 29.7754 143.839 29.9185C143.492 30.0617 143.176 30.2727 142.91 30.5393C142.644 30.8059 142.433 31.1228 142.289 31.4717C142.145 31.8207 142.072 32.1948 142.073 32.5724V32.5724Z" fill="#1A1A1A"></path> <path d="M61.0312 12.103C61.5149 12.0681 62.0003 12.1416 62.4523 12.318C62.9044 12.4945 63.3118 12.7696 63.6453 13.1236C63.9787 13.4775 64.2299 13.9014 64.3806 14.3647C64.5313 14.8279 64.5778 15.3191 64.5169 15.8026C64.5169 18.1813 63.2378 19.5487 61.0312 19.5487H58.3555V12.103H61.0312ZM59.506 18.4957H60.9027C61.2483 18.5164 61.5942 18.4595 61.9152 18.3289C62.2362 18.1984 62.5242 17.9976 62.7582 17.741C62.9922 17.4845 63.1663 17.1788 63.268 16.8461C63.3696 16.5134 63.3961 16.1621 63.3457 15.8178C63.3925 15.4749 63.3632 15.1258 63.2601 14.7955C63.1569 14.4652 62.9823 14.162 62.7488 13.9075C62.5153 13.6531 62.2287 13.4536 61.9096 13.3236C61.5904 13.1935 61.2466 13.136 60.9027 13.1552H59.506V18.4957Z" fill="#1A1A1A"></path> <path d="M65.8137 16.7369C65.7786 16.3676 65.8206 15.9951 65.9371 15.6431C66.0536 15.2911 66.242 14.9675 66.4903 14.693C66.7385 14.4185 67.0411 14.1992 67.3786 14.0491C67.7161 13.899 68.081 13.8215 68.4501 13.8215C68.8191 13.8215 69.1841 13.899 69.5216 14.0491C69.8591 14.1992 70.1617 14.4185 70.4099 14.693C70.6582 14.9675 70.8466 15.2911 70.9631 15.6431C71.0796 15.9951 71.1216 16.3676 71.0864 16.7369C71.1223 17.1065 71.0807 17.4796 70.9645 17.8322C70.8483 18.1847 70.66 18.5089 70.4118 18.784C70.1635 19.059 69.8607 19.2788 69.5228 19.4292C69.185 19.5796 68.8196 19.6573 68.4501 19.6573C68.0806 19.6573 67.7152 19.5796 67.3773 19.4292C67.0395 19.2788 66.7367 19.059 66.4884 18.784C66.2401 18.5089 66.0518 18.1847 65.9356 17.8322C65.8195 17.4796 65.7779 17.1065 65.8137 16.7369ZM69.9516 16.7369C69.9516 15.5189 69.4073 14.8067 68.4519 14.8067C67.4929 14.8067 66.9534 15.5189 66.9534 16.7369C66.9534 17.9646 67.4929 18.6714 68.4519 18.6714C69.4073 18.6714 69.9516 17.9598 69.9516 16.7369H69.9516Z" fill="#1A1A1A"></path> <path d="M78.0976 19.5487H76.9531L75.7977 15.4104H75.7104L74.5598 19.5487H73.4262L71.8853 13.9298H73.0043L74.0057 18.2174H74.0882L75.2375 13.9298H76.296L77.4453 18.2174H77.5326L78.5292 13.9298H79.6324L78.0976 19.5487Z" fill="#1A1A1A"></path> <path d="M80.9277 13.9299H81.9898V14.8225H82.0722C82.2121 14.5019 82.448 14.2331 82.747 14.0537C83.0461 13.8742 83.3934 13.793 83.7405 13.8214C84.0125 13.8008 84.2856 13.8421 84.5396 13.942C84.7936 14.0419 85.022 14.1981 85.2079 14.3988C85.3937 14.5995 85.5322 14.8396 85.6132 15.1015C85.6941 15.3633 85.7154 15.6401 85.6755 15.9113V19.5487H84.5722V16.1897C84.5722 15.2868 84.1818 14.8377 83.3659 14.8377C83.1812 14.8291 82.9968 14.8607 82.8254 14.9303C82.654 15 82.4996 15.1061 82.3729 15.2413C82.2461 15.3766 82.1499 15.5378 82.0909 15.7139C82.0319 15.89 82.0114 16.0768 82.031 16.2616V19.5488H80.9277L80.9277 13.9299Z" fill="#1A1A1A"></path> <path d="M87.4346 11.7363H88.5379V19.5487H87.4346V11.7363Z" fill="#1A1A1A"></path> <path d="M90.072 16.7369C90.0369 16.3676 90.0789 15.995 90.1955 15.643C90.312 15.291 90.5004 14.9674 90.7487 14.6929C90.9969 14.4184 91.2995 14.1991 91.6371 14.049C91.9746 13.8989 92.3396 13.8214 92.7087 13.8214C93.0777 13.8214 93.4428 13.8989 93.7803 14.049C94.1178 14.1991 94.4204 14.4184 94.6686 14.6929C94.9169 14.9674 95.1053 15.291 95.2219 15.643C95.3384 15.995 95.3804 16.3676 95.3453 16.7369C95.3811 17.1065 95.3395 17.4796 95.2233 17.8322C95.1071 18.1847 94.9187 18.5089 94.6704 18.7839C94.4221 19.059 94.1193 19.2788 93.7814 19.4292C93.4436 19.5796 93.0782 19.6573 92.7087 19.6573C92.3392 19.6573 91.9737 19.5796 91.6359 19.4292C91.298 19.2788 90.9952 19.059 90.7469 18.7839C90.4986 18.5089 90.3103 18.1847 90.194 17.8322C90.0778 17.4796 90.0362 17.1065 90.072 16.7369ZM94.2099 16.7369C94.2099 15.5189 93.6655 14.8066 92.7102 14.8066C91.7512 14.8066 91.2117 15.5189 91.2117 16.7369C91.2117 17.9646 91.7512 18.6714 92.7102 18.6714C93.6655 18.6714 94.2099 17.9597 94.2099 16.7369H94.2099Z" fill="#1A1A1A"></path> <path d="M96.5078 17.9597C96.5078 16.9483 97.2571 16.3652 98.5871 16.2824L100.101 16.1946V15.7096C100.101 15.1162 99.711 14.781 98.9569 14.781C98.341 14.781 97.9142 15.0083 97.7917 15.4056H96.7236C96.8364 14.4405 97.7396 13.8214 99.0078 13.8214C100.409 13.8214 101.2 14.5227 101.2 15.7096V19.5488H100.138V18.7592H100.05C99.8732 19.0424 99.6245 19.2733 99.3294 19.4283C99.0344 19.5833 98.7038 19.6568 98.3713 19.6414C98.1366 19.6659 97.8994 19.6407 97.675 19.5675C97.4506 19.4943 97.2439 19.3745 97.0683 19.2161C96.8928 19.0577 96.7522 18.864 96.6556 18.6476C96.5591 18.4312 96.5087 18.1969 96.5078 17.9597ZM100.101 17.4796V17.0099L98.7362 17.0976C97.9663 17.1494 97.6171 17.4126 97.6171 17.9079C97.6171 18.4137 98.0536 18.708 98.6538 18.708C98.8296 18.7258 99.0073 18.708 99.1761 18.6555C99.345 18.603 99.5016 18.5168 99.6366 18.4022C99.7717 18.2876 99.8824 18.1469 99.9623 17.9884C100.042 17.8299 100.089 17.6569 100.101 17.4796Z" fill="#1A1A1A"></path> <path d="M102.651 16.7368C102.651 14.9614 103.559 13.8366 104.971 13.8366C105.321 13.8204 105.668 13.9045 105.971 14.0791C106.275 14.2537 106.523 14.5115 106.686 14.8224H106.768V11.7363H107.871V19.5487H106.814V18.661H106.727C106.551 18.9698 106.295 19.2244 105.985 19.3972C105.676 19.57 105.325 19.6544 104.971 19.6413C103.549 19.6414 102.651 18.5166 102.651 16.7368ZM103.791 16.7368C103.791 17.9286 104.349 18.6458 105.284 18.6458C106.214 18.6458 106.789 17.9183 106.789 16.7417C106.789 15.5707 106.208 14.8328 105.284 14.8328C104.356 14.8328 103.791 15.5548 103.791 16.7368H103.791Z" fill="#1A1A1A"></path> <path d="M112.433 16.7369C112.398 16.3676 112.44 15.9951 112.556 15.6431C112.673 15.2911 112.861 14.9675 113.109 14.693C113.358 14.4185 113.66 14.1992 113.998 14.0491C114.335 13.899 114.7 13.8215 115.069 13.8215C115.438 13.8215 115.803 13.899 116.141 14.0491C116.478 14.1992 116.781 14.4185 117.029 14.693C117.277 14.9675 117.466 15.2911 117.582 15.6431C117.699 15.9951 117.741 16.3676 117.706 16.7369C117.741 17.1065 117.7 17.4796 117.584 17.8322C117.467 18.1847 117.279 18.5089 117.031 18.784C116.783 19.059 116.48 19.2788 116.142 19.4292C115.804 19.5796 115.439 19.6573 115.069 19.6573C114.7 19.6573 114.334 19.5796 113.996 19.4292C113.659 19.2788 113.356 19.059 113.108 18.784C112.859 18.5089 112.671 18.1847 112.555 17.8322C112.439 17.4796 112.397 17.1065 112.433 16.7369ZM116.571 16.7369C116.571 15.5189 116.026 14.8067 115.071 14.8067C114.112 14.8067 113.573 15.5189 113.573 16.7369C113.573 17.9646 114.112 18.6714 115.071 18.6714C116.026 18.6714 116.571 17.9598 116.571 16.7369Z" fill="#1A1A1A"></path> <path d="M119.186 13.9299H120.248V14.8225H120.33C120.47 14.5019 120.706 14.2331 121.005 14.0537C121.304 13.8742 121.651 13.793 121.998 13.8214C122.27 13.8008 122.543 13.8421 122.797 13.942C123.051 14.0419 123.28 14.1981 123.466 14.3988C123.651 14.5995 123.79 14.8396 123.871 15.1015C123.952 15.3633 123.973 15.6401 123.933 15.9113V19.5487H122.83V16.1897C122.83 15.2868 122.44 14.8377 121.624 14.8377C121.439 14.8291 121.255 14.8607 121.083 14.9303C120.912 15 120.757 15.1061 120.631 15.2413C120.504 15.3766 120.408 15.5378 120.349 15.7139C120.29 15.89 120.269 16.0768 120.289 16.2616V19.5488H119.186V13.9299Z" fill="#1A1A1A"></path> <path d="M130.169 12.5303V13.9549H131.38V14.8889H130.169V17.7782C130.169 18.3668 130.41 18.6245 130.959 18.6245C131.1 18.6241 131.24 18.6155 131.38 18.5989V19.5226C131.182 19.5582 130.981 19.5772 130.78 19.5793C129.553 19.5793 129.064 19.1455 129.064 18.0621V14.8889H128.177V13.9548H129.064V12.5303H130.169Z" fill="#1A1A1A"></path> <path d="M132.884 11.7363H133.977V14.8328H134.065C134.211 14.5092 134.454 14.2389 134.759 14.0588C135.064 13.8787 135.417 13.7975 135.769 13.8262C136.04 13.8114 136.31 13.8568 136.561 13.9592C136.813 14.0616 137.038 14.2184 137.222 14.4185C137.406 14.6186 137.544 14.857 137.625 15.1167C137.707 15.3764 137.731 15.651 137.695 15.921V19.5487H136.59V16.1945C136.59 15.2971 136.174 14.8425 135.395 14.8425C135.205 14.8269 135.014 14.8531 134.836 14.9193C134.657 14.9855 134.495 15.0901 134.361 15.2258C134.227 15.3615 134.124 15.525 134.06 15.7048C133.995 15.8847 133.97 16.0766 133.987 16.267V19.5487H132.884L132.884 11.7363Z" fill="#1A1A1A"></path> <path d="M144.13 18.0317C143.98 18.5452 143.655 18.9894 143.212 19.2866C142.769 19.5838 142.237 19.715 141.707 19.6573C141.339 19.6671 140.973 19.5961 140.635 19.4495C140.296 19.3028 139.994 19.0839 139.748 18.808C139.502 18.532 139.319 18.2057 139.212 17.8515C139.104 17.4973 139.075 17.1239 139.125 16.757C139.076 16.3891 139.106 16.0148 139.213 15.6596C139.321 15.3043 139.503 14.9765 139.747 14.6981C139.992 14.4197 140.293 14.1974 140.63 14.0462C140.967 13.8949 141.333 13.8183 141.702 13.8214C143.258 13.8214 144.196 14.8896 144.196 16.654V17.041H140.249V17.1031C140.232 17.3093 140.257 17.5169 140.325 17.7125C140.392 17.9081 140.499 18.0874 140.639 18.239C140.779 18.3905 140.949 18.511 141.138 18.5926C141.328 18.6742 141.532 18.7151 141.738 18.7128C142.002 18.7447 142.269 18.6969 142.506 18.5756C142.743 18.4543 142.938 18.265 143.068 18.0316L144.13 18.0317ZM140.249 16.2209H143.072C143.086 16.0323 143.061 15.8428 142.998 15.6648C142.934 15.4867 142.835 15.3239 142.705 15.1868C142.575 15.0497 142.419 14.9414 142.245 14.8688C142.071 14.7962 141.884 14.7609 141.696 14.7652C141.506 14.7628 141.316 14.7988 141.139 14.8712C140.963 14.9435 140.802 15.0506 140.667 15.1863C140.532 15.3219 140.426 15.4833 140.354 15.661C140.282 15.8387 140.246 16.0291 140.249 16.2209H140.249Z" fill="#1A1A1A"></path> </svg> 